%TF.GenerationSoftware,KiCad,Pcbnew,10.0.6*%
%TF.CreationDate,2026-09-28T01:07:30+08:00*%
%TF.ProjectId,claudepad,636c6175-6465-4706-9164-2e6b69636164,rev?*%
%TF.SameCoordinates,Original*%
%TF.FileFunction,Soldermask,Bot*%
%TF.FilePolarity,Negative*%
%FSLAX46Y46*%
G04 Gerber Fmt 4.6, Leading zero omitted, Abs format (unit mm)*
G04 Created by KiCad (PCBNEW 10.0.6) date 2026-09-28 01:07:30*
%MOMM*%
%LPD*%
G01*
G04 APERTURE LIST*
G04 Aperture macros list*
%AMRoundRect*
0 Rectangle with rounded corners*
0 $1 Rounding radius*
0 $2 $3 $4 $5 $6 $7 $8 $9 X,Y pos of 4 corners*
0 Add a 4 corners polygon primitive as box body*
4,1,4,$2,$3,$4,$5,$6,$7,$8,$9,$2,$3,0*
0 Add four circle primitives for the rounded corners*
1,1,$1+$1,$2,$3*
1,1,$1+$1,$4,$5*
1,1,$1+$1,$6,$7*
1,1,$1+$1,$8,$9*
0 Add four rect primitives between the rounded corners*
20,1,$1+$1,$2,$3,$4,$5,0*
20,1,$1+$1,$4,$5,$6,$7,0*
20,1,$1+$1,$6,$7,$8,$9,0*
20,1,$1+$1,$8,$9,$2,$3,0*%
G04 Aperture macros list end*
%ADD10RoundRect,0.250000X-0.550000X-0.550000X0.550000X-0.550000X0.550000X0.550000X-0.550000X0.550000X0*%
%ADD11C,1.600000*%
%ADD12C,5.000000*%
%ADD13C,2.000000*%
%ADD14C,1.500000*%
%ADD15C,2.500000*%
%ADD16R,1.700000X1.700000*%
%ADD17C,1.700000*%
G04 APERTURE END LIST*
D10*
%TO.C,D8*%
X12690000Y-16000000D03*
D11*
X20310000Y-16000000D03*
%TD*%
D12*
%TO.C,SW5*%
X85000000Y-43000000D03*
D13*
X81200000Y-38070000D03*
X79100000Y-43000000D03*
%TD*%
D12*
%TO.C,SW12*%
X40000000Y-7000000D03*
D14*
X45150000Y-12000000D03*
D13*
X36200000Y-2070000D03*
X34100000Y-7000000D03*
%TD*%
D10*
%TO.C,D1*%
X2190000Y-34000000D03*
D11*
X9810000Y-34000000D03*
%TD*%
D15*
%TO.C,PWR2*%
X3000000Y-23000000D03*
%TD*%
D12*
%TO.C,SW8*%
X49000000Y-25000000D03*
D14*
X54150000Y-30000000D03*
D13*
X45200000Y-20070000D03*
X43100000Y-25000000D03*
%TD*%
D10*
%TO.C,D5*%
X53769999Y-34000000D03*
D11*
X61389999Y-34000000D03*
%TD*%
D12*
%TO.C,SW7*%
X31000000Y-25000000D03*
D14*
X36150000Y-30000000D03*
D13*
X27200000Y-20070000D03*
X25100000Y-25000000D03*
%TD*%
D15*
%TO.C,GND1*%
X78000000Y-33000000D03*
%TD*%
D16*
%TO.C,JP1*%
X80970000Y-7030000D03*
D17*
X80970000Y-9570000D03*
X80970000Y-12110000D03*
X80970000Y-14650000D03*
X80970000Y-17190000D03*
X80970000Y-19730000D03*
X80970000Y-22270000D03*
X80970000Y-24810000D03*
X80970000Y-27350000D03*
X80970000Y-29890000D03*
X80970000Y-32430000D03*
X80970000Y-34970000D03*
%TD*%
D10*
%TO.C,D3*%
X23190000Y-34000000D03*
D11*
X30810000Y-34000000D03*
%TD*%
D10*
%TO.C,D10*%
X53769999Y-16000000D03*
D11*
X61389999Y-16000000D03*
%TD*%
D12*
%TO.C,SW6*%
X13000000Y-25000000D03*
D14*
X18150000Y-30000000D03*
D13*
X9200000Y-20070000D03*
X7100000Y-25000000D03*
%TD*%
D15*
%TO.C,RGB1*%
X76000000Y-28000000D03*
%TD*%
%TO.C,LEV1*%
X89000000Y-33500000D03*
%TD*%
D12*
%TO.C,SW2*%
X31000000Y-43000000D03*
D14*
X36150000Y-48000000D03*
D13*
X27200000Y-38070000D03*
X25100000Y-43000000D03*
%TD*%
D10*
%TO.C,D12*%
X64090000Y-16000000D03*
D11*
X71710000Y-16000000D03*
%TD*%
D12*
%TO.C,SW13*%
X67000000Y-7000000D03*
D14*
X72150000Y-12000000D03*
D13*
X63200000Y-2070000D03*
X61100000Y-7000000D03*
%TD*%
D16*
%TO.C,JP2*%
X96210000Y-7030000D03*
D17*
X96210000Y-9570000D03*
X96210000Y-12110000D03*
X96210000Y-14650000D03*
X96210000Y-17190000D03*
X96210000Y-19730000D03*
X96210000Y-22270000D03*
X96210000Y-24810000D03*
X96210000Y-27350000D03*
X96210000Y-29890000D03*
X96210000Y-32430000D03*
X96210000Y-34970000D03*
%TD*%
D12*
%TO.C,SW1*%
X13000000Y-43000000D03*
D14*
X18150000Y-48000000D03*
D13*
X9200000Y-38070000D03*
X7100000Y-43000000D03*
%TD*%
D10*
%TO.C,D6*%
X64090000Y-34000000D03*
D11*
X71710000Y-34000000D03*
%TD*%
D12*
%TO.C,SW10*%
X85000000Y-25000000D03*
D13*
X88800000Y-29930000D03*
X90900000Y-25000000D03*
%TD*%
D10*
%TO.C,D4*%
X43449999Y-34000000D03*
D11*
X51069999Y-34000000D03*
%TD*%
D12*
%TO.C,SW4*%
X67000000Y-43000000D03*
D14*
X72150000Y-48000000D03*
D13*
X63200000Y-38070000D03*
X61100000Y-43000000D03*
%TD*%
D10*
%TO.C,D7*%
X2190000Y-16000000D03*
D11*
X9810000Y-16000000D03*
%TD*%
D15*
%TO.C,LEV2*%
X85500000Y-34200000D03*
%TD*%
D12*
%TO.C,SW3*%
X49000000Y-43000000D03*
D14*
X54150000Y-48000000D03*
D13*
X45200000Y-38070000D03*
X43100000Y-43000000D03*
%TD*%
D15*
%TO.C,RST1*%
X74000000Y-33000000D03*
%TD*%
D10*
%TO.C,D11*%
X43449999Y-16000000D03*
D11*
X51069999Y-16000000D03*
%TD*%
D12*
%TO.C,SW9*%
X67000000Y-25000000D03*
D14*
X72150000Y-30000000D03*
D13*
X63200000Y-20070000D03*
X61100000Y-25000000D03*
%TD*%
D10*
%TO.C,D2*%
X12690000Y-34000000D03*
D11*
X20310000Y-34000000D03*
%TD*%
D12*
%TO.C,SW11*%
X13000000Y-7000000D03*
D14*
X18150000Y-12000000D03*
D13*
X9200000Y-2070000D03*
X7100000Y-7000000D03*
%TD*%
D15*
%TO.C,PWR1*%
X3000000Y-27000000D03*
%TD*%
D10*
%TO.C,D9*%
X23190000Y-16000000D03*
D11*
X30810000Y-16000000D03*
%TD*%
D12*
%TO.C,SW14*%
X85000000Y-7000000D03*
D14*
X79850000Y-2000000D03*
D13*
X88800000Y-11930000D03*
X90900000Y-7000000D03*
%TD*%
M02*
