%TF.GenerationSoftware,KiCad,Pcbnew,10.0.6*%
%TF.CreationDate,2026-09-28T01:07:30+08:00*%
%TF.ProjectId,claudepad,636c6175-6465-4706-9164-2e6b69636164,rev?*%
%TF.SameCoordinates,Original*%
%TF.FileFunction,Copper,L1,Top*%
%TF.FilePolarity,Positive*%
%FSLAX46Y46*%
G04 Gerber Fmt 4.6, Leading zero omitted, Abs format (unit mm)*
G04 Created by KiCad (PCBNEW 10.0.6) date 2026-09-28 01:07:30*
%MOMM*%
%LPD*%
G01*
G04 APERTURE LIST*
G04 Aperture macros list*
%AMRoundRect*
0 Rectangle with rounded corners*
0 $1 Rounding radius*
0 $2 $3 $4 $5 $6 $7 $8 $9 X,Y pos of 4 corners*
0 Add a 4 corners polygon primitive as box body*
4,1,4,$2,$3,$4,$5,$6,$7,$8,$9,$2,$3,0*
0 Add four circle primitives for the rounded corners*
1,1,$1+$1,$2,$3*
1,1,$1+$1,$4,$5*
1,1,$1+$1,$6,$7*
1,1,$1+$1,$8,$9*
0 Add four rect primitives between the rounded corners*
20,1,$1+$1,$2,$3,$4,$5,0*
20,1,$1+$1,$4,$5,$6,$7,0*
20,1,$1+$1,$6,$7,$8,$9,0*
20,1,$1+$1,$8,$9,$2,$3,0*%
G04 Aperture macros list end*
%TA.AperFunction,ComponentPad*%
%ADD10RoundRect,0.250000X-0.550000X-0.550000X0.550000X-0.550000X0.550000X0.550000X-0.550000X0.550000X0*%
%TD*%
%TA.AperFunction,ComponentPad*%
%ADD11C,1.600000*%
%TD*%
%TA.AperFunction,ComponentPad*%
%ADD12C,2.000000*%
%TD*%
%TA.AperFunction,ComponentPad*%
%ADD13C,2.500000*%
%TD*%
%TA.AperFunction,ComponentPad*%
%ADD14R,1.700000X1.700000*%
%TD*%
%TA.AperFunction,ComponentPad*%
%ADD15C,1.700000*%
%TD*%
%TA.AperFunction,ViaPad*%
%ADD16C,0.600000*%
%TD*%
%TA.AperFunction,Conductor*%
%ADD17C,0.200000*%
%TD*%
G04 APERTURE END LIST*
D10*
%TO.P,D8,1*%
%TO.N,ROW2*%
X12690000Y-16000000D03*
D11*
%TO.P,D8,2*%
%TO.N,COL2*%
X20310000Y-16000000D03*
%TD*%
D12*
%TO.P,SW5,1*%
%TO.N,COL5*%
X81200000Y-38070000D03*
%TO.P,SW5,2*%
%TO.N,ROW1*%
X79100000Y-43000000D03*
%TD*%
%TO.P,SW12,1*%
%TO.N,COL1*%
X36200000Y-2070000D03*
%TO.P,SW12,2*%
%TO.N,ROW3*%
X34100000Y-7000000D03*
%TD*%
D10*
%TO.P,D1,1*%
%TO.N,ROW1*%
X2190000Y-34000000D03*
D11*
%TO.P,D1,2*%
%TO.N,COL1*%
X9810000Y-34000000D03*
%TD*%
D13*
%TO.P,PWR2,1*%
%TO.N,N/C*%
X3000000Y-23000000D03*
%TD*%
D12*
%TO.P,SW8,1*%
%TO.N,COL3*%
X45200000Y-20070000D03*
%TO.P,SW8,2*%
%TO.N,ROW2*%
X43100000Y-25000000D03*
%TD*%
D10*
%TO.P,D5,1*%
%TO.N,ROW1*%
X53769999Y-34000000D03*
D11*
%TO.P,D5,2*%
%TO.N,COL5*%
X61389999Y-34000000D03*
%TD*%
D12*
%TO.P,SW7,1*%
%TO.N,COL2*%
X27200000Y-20070000D03*
%TO.P,SW7,2*%
%TO.N,ROW2*%
X25100000Y-25000000D03*
%TD*%
D13*
%TO.P,GND1,1*%
%TO.N,GND*%
X78000000Y-33000000D03*
%TD*%
D14*
%TO.P,JP1,1*%
%TO.N,N/C*%
X80970000Y-7030000D03*
D15*
%TO.P,JP1,2*%
X80970000Y-9570000D03*
%TO.P,JP1,3*%
%TO.N,GND*%
X80970000Y-12110000D03*
%TO.P,JP1,4*%
X80970000Y-14650000D03*
%TO.P,JP1,5*%
%TO.N,N/C*%
X80970000Y-17190000D03*
%TO.P,JP1,6*%
X80970000Y-19730000D03*
%TO.P,JP1,7*%
%TO.N,ROW1*%
X80970000Y-22270000D03*
%TO.P,JP1,8*%
%TO.N,ROW2*%
X80970000Y-24810000D03*
%TO.P,JP1,9*%
%TO.N,ROW3*%
X80970000Y-27350000D03*
%TO.P,JP1,10*%
%TO.N,COL1*%
X80970000Y-29890000D03*
%TO.P,JP1,11*%
%TO.N,COL2*%
X80970000Y-32430000D03*
%TO.P,JP1,12*%
%TO.N,COL3*%
X80970000Y-34970000D03*
%TD*%
D10*
%TO.P,D3,1*%
%TO.N,ROW1*%
X23190000Y-34000000D03*
D11*
%TO.P,D3,2*%
%TO.N,COL3*%
X30810000Y-34000000D03*
%TD*%
D10*
%TO.P,D10,1*%
%TO.N,ROW2*%
X53769999Y-16000000D03*
D11*
%TO.P,D10,2*%
%TO.N,COL4*%
X61389999Y-16000000D03*
%TD*%
D12*
%TO.P,SW6,1*%
%TO.N,COL1*%
X9200000Y-20070000D03*
%TO.P,SW6,2*%
%TO.N,ROW2*%
X7100000Y-25000000D03*
%TD*%
D13*
%TO.P,RGB1,1*%
%TO.N,RGB_DIN*%
X76000000Y-28000000D03*
%TD*%
%TO.P,LEV1,1*%
%TO.N,APPROVE_MID*%
X89000000Y-33500000D03*
%TD*%
D12*
%TO.P,SW2,1*%
%TO.N,COL2*%
X27200000Y-38070000D03*
%TO.P,SW2,2*%
%TO.N,ROW1*%
X25100000Y-43000000D03*
%TD*%
D10*
%TO.P,D12,1*%
%TO.N,ROW3*%
X64090000Y-16000000D03*
D11*
%TO.P,D12,2*%
%TO.N,COL5*%
X71710000Y-16000000D03*
%TD*%
D12*
%TO.P,SW13,1*%
%TO.N,COL1*%
X63200000Y-2070000D03*
%TO.P,SW13,2*%
%TO.N,ROW3*%
X61100000Y-7000000D03*
%TD*%
D14*
%TO.P,JP2,1*%
%TO.N,N/C*%
X96210000Y-7030000D03*
D15*
%TO.P,JP2,2*%
%TO.N,GND*%
X96210000Y-9570000D03*
%TO.P,JP2,3*%
%TO.N,RST*%
X96210000Y-12110000D03*
%TO.P,JP2,4*%
%TO.N,N/C*%
X96210000Y-14650000D03*
%TO.P,JP2,5*%
X96210000Y-17190000D03*
%TO.P,JP2,6*%
X96210000Y-19730000D03*
%TO.P,JP2,7*%
X96210000Y-22270000D03*
%TO.P,JP2,8*%
X96210000Y-24810000D03*
%TO.P,JP2,9*%
%TO.N,RGB_DIN*%
X96210000Y-27350000D03*
%TO.P,JP2,10*%
%TO.N,COL6*%
X96210000Y-29890000D03*
%TO.P,JP2,11*%
%TO.N,COL5*%
X96210000Y-32430000D03*
%TO.P,JP2,12*%
%TO.N,COL4*%
X96210000Y-34970000D03*
%TD*%
D12*
%TO.P,SW1,1*%
%TO.N,COL1*%
X9200000Y-38070000D03*
%TO.P,SW1,2*%
%TO.N,ROW1*%
X7100000Y-43000000D03*
%TD*%
D10*
%TO.P,D6,1*%
%TO.N,ROW1*%
X64090000Y-34000000D03*
D11*
%TO.P,D6,2*%
%TO.N,COL6*%
X71710000Y-34000000D03*
%TD*%
D12*
%TO.P,SW10,1*%
%TO.N,COL4*%
X88800000Y-29930000D03*
%TO.P,SW10,2*%
%TO.N,ROW2*%
X90900000Y-25000000D03*
%TD*%
D10*
%TO.P,D4,1*%
%TO.N,ROW1*%
X43449999Y-34000000D03*
D11*
%TO.P,D4,2*%
%TO.N,COL4*%
X51069999Y-34000000D03*
%TD*%
D12*
%TO.P,SW4,1*%
%TO.N,COL4*%
X63200000Y-38070000D03*
%TO.P,SW4,2*%
%TO.N,ROW1*%
X61100000Y-43000000D03*
%TD*%
D10*
%TO.P,D7,1*%
%TO.N,ROW2*%
X2190000Y-16000000D03*
D11*
%TO.P,D7,2*%
%TO.N,COL1*%
X9810000Y-16000000D03*
%TD*%
D13*
%TO.P,LEV2,1*%
%TO.N,ROW1*%
X85500000Y-34200000D03*
%TD*%
D12*
%TO.P,SW3,1*%
%TO.N,COL3*%
X45200000Y-38070000D03*
%TO.P,SW3,2*%
%TO.N,ROW1*%
X43100000Y-43000000D03*
%TD*%
D13*
%TO.P,RST1,1*%
%TO.N,RST*%
X74000000Y-33000000D03*
%TD*%
D10*
%TO.P,D11,1*%
%TO.N,ROW3*%
X43449999Y-16000000D03*
D11*
%TO.P,D11,2*%
%TO.N,COL1*%
X51069999Y-16000000D03*
%TD*%
D12*
%TO.P,SW9,1*%
%TO.N,COL4*%
X63200000Y-20070000D03*
%TO.P,SW9,2*%
%TO.N,ROW2*%
X61100000Y-25000000D03*
%TD*%
D10*
%TO.P,D2,1*%
%TO.N,ROW1*%
X12690000Y-34000000D03*
D11*
%TO.P,D2,2*%
%TO.N,COL2*%
X20310000Y-34000000D03*
%TD*%
D12*
%TO.P,SW11,1*%
%TO.N,COL1*%
X9200000Y-2070000D03*
%TO.P,SW11,2*%
%TO.N,ROW3*%
X7100000Y-7000000D03*
%TD*%
D13*
%TO.P,PWR1,1*%
%TO.N,N/C*%
X3000000Y-27000000D03*
%TD*%
D10*
%TO.P,D9,1*%
%TO.N,ROW2*%
X23190000Y-16000000D03*
D11*
%TO.P,D9,2*%
%TO.N,COL3*%
X30810000Y-16000000D03*
%TD*%
D12*
%TO.P,SW14,1*%
%TO.N,COL5*%
X88800000Y-11930000D03*
%TO.P,SW14,2*%
%TO.N,ROW3*%
X90900000Y-7000000D03*
%TD*%
D16*
%TO.N,RST*%
X77535400Y-18460000D03*
X76594400Y-31830700D03*
%TD*%
%TO.N,ROW2*%
D17*
X23190000Y-16000000D02*
X22050700Y-14860700D01*
X22050700Y-14860700D02*
X13829300Y-14860700D01*
X61100000Y-25000000D02*
X64190600Y-21909400D01*
X40014000Y-21914000D02*
X43100000Y-25000000D01*
X2190000Y-16000000D02*
X3291700Y-14898300D01*
X3291700Y-14898300D02*
X11588300Y-14898300D01*
X64190600Y-21909400D02*
X78069400Y-21909400D01*
X28186000Y-21914000D02*
X40014000Y-21914000D01*
X78069400Y-21909400D02*
X80970000Y-24810000D01*
X13829300Y-14860700D02*
X12690000Y-16000000D01*
X25100000Y-25000000D02*
X28186000Y-21914000D01*
X11588300Y-14898300D02*
X12690000Y-16000000D01*
%TO.N,COL2*%
X80970000Y-32430000D02*
X77472600Y-35927400D01*
X20310000Y-34000000D02*
X24380000Y-38070000D01*
X29342600Y-35927400D02*
X27200000Y-38070000D01*
X77472600Y-35927400D02*
X29342600Y-35927400D01*
X24380000Y-38070000D02*
X27200000Y-38070000D01*
%TO.N,COL5*%
X96210000Y-32430000D02*
X92519800Y-36120200D01*
X83149800Y-36120200D02*
X81200000Y-38070000D01*
X84730000Y-16000000D02*
X71710000Y-16000000D01*
X88800000Y-11930000D02*
X84730000Y-16000000D01*
X92519800Y-36120200D02*
X83149800Y-36120200D01*
%TO.N,ROW1*%
X24329000Y-35139000D02*
X23190000Y-34000000D01*
X22064400Y-32874400D02*
X13815600Y-32874400D01*
X42311000Y-35139000D02*
X24329000Y-35139000D01*
X53770000Y-35167100D02*
X44617100Y-35167100D01*
X43450000Y-34000000D02*
X42311000Y-35139000D01*
X64090000Y-34000000D02*
X62922900Y-35167100D01*
X44617100Y-35167100D02*
X43450000Y-34000000D01*
X13815600Y-32874400D02*
X12690000Y-34000000D01*
X53770000Y-34000000D02*
X53770000Y-35167100D01*
X23190000Y-34000000D02*
X22064400Y-32874400D01*
X62922900Y-35167100D02*
X53770000Y-35167100D01*
%TO.N,COL1*%
X80970000Y-29890000D02*
X74264200Y-29890000D01*
X9200000Y-2069999D02*
X36200000Y-2069999D01*
X51070000Y-16815800D02*
X51070000Y-16000000D01*
X65583900Y-31329700D02*
X51070000Y-16815800D01*
X72824500Y-31329700D02*
X65583900Y-31329700D01*
X74264200Y-29890000D02*
X72824500Y-31329700D01*
%TO.N,ROW3*%
X44589600Y-14860400D02*
X62950400Y-14860400D01*
X31037400Y-3937400D02*
X34100000Y-7000000D01*
X7100000Y-7000000D02*
X10162600Y-3937400D01*
X62950400Y-14860400D02*
X64090000Y-16000000D01*
X10162600Y-3937400D02*
X31037400Y-3937400D01*
X43450000Y-16000000D02*
X44589600Y-14860400D01*
%TO.N,COL3*%
X79210700Y-36729300D02*
X46540700Y-36729300D01*
X30810000Y-16000000D02*
X41130000Y-16000000D01*
X46540700Y-36729300D02*
X45200000Y-38070000D01*
X41130000Y-16000000D02*
X45200000Y-20070000D01*
X80970000Y-34970000D02*
X79210700Y-36729300D01*
%TO.N,GND*%
X88650000Y-9570000D02*
X86110000Y-12110000D01*
X96210000Y-9570000D02*
X88650000Y-9570000D01*
X86110000Y-12110000D02*
X80970000Y-12110000D01*
%TO.N,COL4*%
X85815400Y-39415900D02*
X88134700Y-37096599D01*
X64545900Y-39415900D02*
X85815400Y-39415900D01*
X94083400Y-37096599D02*
X96210000Y-34970000D01*
X88134700Y-37096599D02*
X94083400Y-37096599D01*
X63200000Y-38070000D02*
X64545900Y-39415900D01*
%TO.N,RGB_DIN*%
X96210000Y-27350000D02*
X95017500Y-28542500D01*
X76542500Y-28542500D02*
X76000000Y-28000000D01*
X95017500Y-28542500D02*
X76542500Y-28542500D01*
%TO.N,RST*%
X96210000Y-12110000D02*
X89860000Y-18460000D01*
X76594400Y-31830700D02*
X75169300Y-31830700D01*
X75169300Y-31830700D02*
X74000000Y-33000000D01*
X89860000Y-18460000D02*
X77535400Y-18460000D01*
%TO.N,COL6*%
X88308900Y-31279800D02*
X94820200Y-31279800D01*
X71710000Y-33065400D02*
X73555500Y-31219900D01*
X94820200Y-31279800D02*
X96210000Y-29890000D01*
X71710000Y-34000000D02*
X71710000Y-33065400D01*
X88249000Y-31219900D02*
X88308900Y-31279800D01*
X73555500Y-31219900D02*
X88249000Y-31219900D01*
%TD*%
M02*
