M48
; DRILL file KiCad 10.0.6 date 2026-09-28T01:07:31
; FORMAT={-:-/ absolute / metric / decimal}
; #@! TF.CreationDate,2026-09-28T01:07:31+08:00
; #@! TF.GenerationSoftware,Kicad,Pcbnew,10.0.6
; #@! TF.FileFunction,MixedPlating,1,2
FMAT,2
METRIC
; #@! TA.AperFunction,Plated,PTH,ViaDrill
T1C0.300
; #@! TA.AperFunction,Plated,PTH,ComponentDrill
T2C0.800
; #@! TA.AperFunction,Plated,PTH,ComponentDrill
T3C1.000
; #@! TA.AperFunction,Plated,PTH,ComponentDrill
T4C1.200
; #@! TA.AperFunction,Plated,PTH,ComponentDrill
T5C1.500
; #@! TA.AperFunction,NonPlated,NPTH,ComponentDrill
T6C1.500
; #@! TA.AperFunction,NonPlated,NPTH,ComponentDrill
T7C5.000
%
G90
G05
T1
X76.594Y-31.831
X77.535Y-18.46
T2
X2.19Y-16.0
X2.19Y-34.0
X9.81Y-16.0
X9.81Y-34.0
X12.69Y-16.0
X12.69Y-34.0
X20.31Y-16.0
X20.31Y-34.0
X23.19Y-16.0
X23.19Y-34.0
X30.81Y-16.0
X30.81Y-34.0
X43.45Y-16.0
X43.45Y-34.0
X51.07Y-16.0
X51.07Y-34.0
X53.77Y-16.0
X53.77Y-34.0
X61.39Y-16.0
X61.39Y-34.0
X64.09Y-16.0
X64.09Y-34.0
X71.71Y-16.0
X71.71Y-34.0
T3
X80.97Y-7.03
X80.97Y-9.57
X80.97Y-12.11
X80.97Y-14.65
X80.97Y-17.19
X80.97Y-19.73
X80.97Y-22.27
X80.97Y-24.81
X80.97Y-27.35
X80.97Y-29.89
X80.97Y-32.43
X80.97Y-34.97
X96.21Y-7.03
X96.21Y-9.57
X96.21Y-12.11
X96.21Y-14.65
X96.21Y-17.19
X96.21Y-19.73
X96.21Y-22.27
X96.21Y-24.81
X96.21Y-27.35
X96.21Y-29.89
X96.21Y-32.43
X96.21Y-34.97
T4
X7.1Y-7.0
X7.1Y-25.0
X7.1Y-43.0
X9.2Y-2.07
X9.2Y-20.07
X9.2Y-38.07
X25.1Y-25.0
X25.1Y-43.0
X27.2Y-20.07
X27.2Y-38.07
X34.1Y-7.0
X36.2Y-2.07
X43.1Y-25.0
X43.1Y-43.0
X45.2Y-20.07
X45.2Y-38.07
X61.1Y-7.0
X61.1Y-25.0
X61.1Y-43.0
X63.2Y-2.07
X63.2Y-20.07
X63.2Y-38.07
X79.1Y-43.0
X81.2Y-38.07
X88.8Y-11.93
X88.8Y-29.93
X90.9Y-7.0
X90.9Y-25.0
T5
X3.0Y-23.0
X3.0Y-27.0
X74.0Y-33.0
X76.0Y-28.0
X78.0Y-33.0
X85.5Y-34.2
X89.0Y-33.5
T6
X18.15Y-12.0
X18.15Y-30.0
X18.15Y-48.0
X36.15Y-30.0
X36.15Y-48.0
X45.15Y-12.0
X54.15Y-30.0
X54.15Y-48.0
X72.15Y-12.0
X72.15Y-30.0
X72.15Y-48.0
X79.85Y-2.0
T7
X13.0Y-7.0
X13.0Y-25.0
X13.0Y-43.0
X31.0Y-25.0
X31.0Y-43.0
X40.0Y-7.0
X49.0Y-25.0
X49.0Y-43.0
X67.0Y-7.0
X67.0Y-25.0
X67.0Y-43.0
X85.0Y-7.0
X85.0Y-25.0
X85.0Y-43.0
M30
