%TF.GenerationSoftware,KiCad,Pcbnew,10.0.6*%
%TF.CreationDate,2026-09-28T01:07:30+08:00*%
%TF.ProjectId,claudepad,636c6175-6465-4706-9164-2e6b69636164,rev?*%
%TF.SameCoordinates,Original*%
%TF.FileFunction,Copper,L2,Bot*%
%TF.FilePolarity,Positive*%
%FSLAX46Y46*%
G04 Gerber Fmt 4.6, Leading zero omitted, Abs format (unit mm)*
G04 Created by KiCad (PCBNEW 10.0.6) date 2026-09-28 01:07:30*
%MOMM*%
%LPD*%
G01*
G04 APERTURE LIST*
G04 Aperture macros list*
%AMRoundRect*
0 Rectangle with rounded corners*
0 $1 Rounding radius*
0 $2 $3 $4 $5 $6 $7 $8 $9 X,Y pos of 4 corners*
0 Add a 4 corners polygon primitive as box body*
4,1,4,$2,$3,$4,$5,$6,$7,$8,$9,$2,$3,0*
0 Add four circle primitives for the rounded corners*
1,1,$1+$1,$2,$3*
1,1,$1+$1,$4,$5*
1,1,$1+$1,$6,$7*
1,1,$1+$1,$8,$9*
0 Add four rect primitives between the rounded corners*
20,1,$1+$1,$2,$3,$4,$5,0*
20,1,$1+$1,$4,$5,$6,$7,0*
20,1,$1+$1,$6,$7,$8,$9,0*
20,1,$1+$1,$8,$9,$2,$3,0*%
G04 Aperture macros list end*
%TA.AperFunction,ComponentPad*%
%ADD10RoundRect,0.250000X-0.550000X-0.550000X0.550000X-0.550000X0.550000X0.550000X-0.550000X0.550000X0*%
%TD*%
%TA.AperFunction,ComponentPad*%
%ADD11C,1.600000*%
%TD*%
%TA.AperFunction,ComponentPad*%
%ADD12C,2.000000*%
%TD*%
%TA.AperFunction,ComponentPad*%
%ADD13C,2.500000*%
%TD*%
%TA.AperFunction,ComponentPad*%
%ADD14R,1.700000X1.700000*%
%TD*%
%TA.AperFunction,ComponentPad*%
%ADD15C,1.700000*%
%TD*%
%TA.AperFunction,ViaPad*%
%ADD16C,0.600000*%
%TD*%
%TA.AperFunction,Conductor*%
%ADD17C,0.200000*%
%TD*%
G04 APERTURE END LIST*
D10*
%TO.P,D8,1*%
%TO.N,ROW2*%
X12690000Y-16000000D03*
D11*
%TO.P,D8,2*%
%TO.N,COL2*%
X20310000Y-16000000D03*
%TD*%
D12*
%TO.P,SW5,1*%
%TO.N,COL5*%
X81200000Y-38070000D03*
%TO.P,SW5,2*%
%TO.N,ROW1*%
X79100000Y-43000000D03*
%TD*%
%TO.P,SW12,1*%
%TO.N,COL1*%
X36200000Y-2070000D03*
%TO.P,SW12,2*%
%TO.N,ROW3*%
X34100000Y-7000000D03*
%TD*%
D10*
%TO.P,D1,1*%
%TO.N,ROW1*%
X2190000Y-34000000D03*
D11*
%TO.P,D1,2*%
%TO.N,COL1*%
X9810000Y-34000000D03*
%TD*%
D13*
%TO.P,PWR2,1*%
%TO.N,N/C*%
X3000000Y-23000000D03*
%TD*%
D12*
%TO.P,SW8,1*%
%TO.N,COL3*%
X45200000Y-20070000D03*
%TO.P,SW8,2*%
%TO.N,ROW2*%
X43100000Y-25000000D03*
%TD*%
D10*
%TO.P,D5,1*%
%TO.N,ROW1*%
X53769999Y-34000000D03*
D11*
%TO.P,D5,2*%
%TO.N,COL5*%
X61389999Y-34000000D03*
%TD*%
D12*
%TO.P,SW7,1*%
%TO.N,COL2*%
X27200000Y-20070000D03*
%TO.P,SW7,2*%
%TO.N,ROW2*%
X25100000Y-25000000D03*
%TD*%
D13*
%TO.P,GND1,1*%
%TO.N,GND*%
X78000000Y-33000000D03*
%TD*%
D14*
%TO.P,JP1,1*%
%TO.N,N/C*%
X80970000Y-7030000D03*
D15*
%TO.P,JP1,2*%
X80970000Y-9570000D03*
%TO.P,JP1,3*%
%TO.N,GND*%
X80970000Y-12110000D03*
%TO.P,JP1,4*%
X80970000Y-14650000D03*
%TO.P,JP1,5*%
%TO.N,N/C*%
X80970000Y-17190000D03*
%TO.P,JP1,6*%
X80970000Y-19730000D03*
%TO.P,JP1,7*%
%TO.N,ROW1*%
X80970000Y-22270000D03*
%TO.P,JP1,8*%
%TO.N,ROW2*%
X80970000Y-24810000D03*
%TO.P,JP1,9*%
%TO.N,ROW3*%
X80970000Y-27350000D03*
%TO.P,JP1,10*%
%TO.N,COL1*%
X80970000Y-29890000D03*
%TO.P,JP1,11*%
%TO.N,COL2*%
X80970000Y-32430000D03*
%TO.P,JP1,12*%
%TO.N,COL3*%
X80970000Y-34970000D03*
%TD*%
D10*
%TO.P,D3,1*%
%TO.N,ROW1*%
X23190000Y-34000000D03*
D11*
%TO.P,D3,2*%
%TO.N,COL3*%
X30810000Y-34000000D03*
%TD*%
D10*
%TO.P,D10,1*%
%TO.N,ROW2*%
X53769999Y-16000000D03*
D11*
%TO.P,D10,2*%
%TO.N,COL4*%
X61389999Y-16000000D03*
%TD*%
D12*
%TO.P,SW6,1*%
%TO.N,COL1*%
X9200000Y-20070000D03*
%TO.P,SW6,2*%
%TO.N,ROW2*%
X7100000Y-25000000D03*
%TD*%
D13*
%TO.P,RGB1,1*%
%TO.N,RGB_DIN*%
X76000000Y-28000000D03*
%TD*%
%TO.P,LEV1,1*%
%TO.N,APPROVE_MID*%
X89000000Y-33500000D03*
%TD*%
D12*
%TO.P,SW2,1*%
%TO.N,COL2*%
X27200000Y-38070000D03*
%TO.P,SW2,2*%
%TO.N,ROW1*%
X25100000Y-43000000D03*
%TD*%
D10*
%TO.P,D12,1*%
%TO.N,ROW3*%
X64090000Y-16000000D03*
D11*
%TO.P,D12,2*%
%TO.N,COL5*%
X71710000Y-16000000D03*
%TD*%
D12*
%TO.P,SW13,1*%
%TO.N,COL1*%
X63200000Y-2070000D03*
%TO.P,SW13,2*%
%TO.N,ROW3*%
X61100000Y-7000000D03*
%TD*%
D14*
%TO.P,JP2,1*%
%TO.N,N/C*%
X96210000Y-7030000D03*
D15*
%TO.P,JP2,2*%
%TO.N,GND*%
X96210000Y-9570000D03*
%TO.P,JP2,3*%
%TO.N,RST*%
X96210000Y-12110000D03*
%TO.P,JP2,4*%
%TO.N,N/C*%
X96210000Y-14650000D03*
%TO.P,JP2,5*%
X96210000Y-17190000D03*
%TO.P,JP2,6*%
X96210000Y-19730000D03*
%TO.P,JP2,7*%
X96210000Y-22270000D03*
%TO.P,JP2,8*%
X96210000Y-24810000D03*
%TO.P,JP2,9*%
%TO.N,RGB_DIN*%
X96210000Y-27350000D03*
%TO.P,JP2,10*%
%TO.N,COL6*%
X96210000Y-29890000D03*
%TO.P,JP2,11*%
%TO.N,COL5*%
X96210000Y-32430000D03*
%TO.P,JP2,12*%
%TO.N,COL4*%
X96210000Y-34970000D03*
%TD*%
D12*
%TO.P,SW1,1*%
%TO.N,COL1*%
X9200000Y-38070000D03*
%TO.P,SW1,2*%
%TO.N,ROW1*%
X7100000Y-43000000D03*
%TD*%
D10*
%TO.P,D6,1*%
%TO.N,ROW1*%
X64090000Y-34000000D03*
D11*
%TO.P,D6,2*%
%TO.N,COL6*%
X71710000Y-34000000D03*
%TD*%
D12*
%TO.P,SW10,1*%
%TO.N,COL4*%
X88800000Y-29930000D03*
%TO.P,SW10,2*%
%TO.N,ROW2*%
X90900000Y-25000000D03*
%TD*%
D10*
%TO.P,D4,1*%
%TO.N,ROW1*%
X43449999Y-34000000D03*
D11*
%TO.P,D4,2*%
%TO.N,COL4*%
X51069999Y-34000000D03*
%TD*%
D12*
%TO.P,SW4,1*%
%TO.N,COL4*%
X63200000Y-38070000D03*
%TO.P,SW4,2*%
%TO.N,ROW1*%
X61100000Y-43000000D03*
%TD*%
D10*
%TO.P,D7,1*%
%TO.N,ROW2*%
X2190000Y-16000000D03*
D11*
%TO.P,D7,2*%
%TO.N,COL1*%
X9810000Y-16000000D03*
%TD*%
D13*
%TO.P,LEV2,1*%
%TO.N,ROW1*%
X85500000Y-34200000D03*
%TD*%
D12*
%TO.P,SW3,1*%
%TO.N,COL3*%
X45200000Y-38070000D03*
%TO.P,SW3,2*%
%TO.N,ROW1*%
X43100000Y-43000000D03*
%TD*%
D13*
%TO.P,RST1,1*%
%TO.N,RST*%
X74000000Y-33000000D03*
%TD*%
D10*
%TO.P,D11,1*%
%TO.N,ROW3*%
X43449999Y-16000000D03*
D11*
%TO.P,D11,2*%
%TO.N,COL1*%
X51069999Y-16000000D03*
%TD*%
D12*
%TO.P,SW9,1*%
%TO.N,COL4*%
X63200000Y-20070000D03*
%TO.P,SW9,2*%
%TO.N,ROW2*%
X61100000Y-25000000D03*
%TD*%
D10*
%TO.P,D2,1*%
%TO.N,ROW1*%
X12690000Y-34000000D03*
D11*
%TO.P,D2,2*%
%TO.N,COL2*%
X20310000Y-34000000D03*
%TD*%
D12*
%TO.P,SW11,1*%
%TO.N,COL1*%
X9200000Y-2070000D03*
%TO.P,SW11,2*%
%TO.N,ROW3*%
X7100000Y-7000000D03*
%TD*%
D13*
%TO.P,PWR1,1*%
%TO.N,N/C*%
X3000000Y-27000000D03*
%TD*%
D10*
%TO.P,D9,1*%
%TO.N,ROW2*%
X23190000Y-16000000D03*
D11*
%TO.P,D9,2*%
%TO.N,COL3*%
X30810000Y-16000000D03*
%TD*%
D12*
%TO.P,SW14,1*%
%TO.N,COL5*%
X88800000Y-11930000D03*
%TO.P,SW14,2*%
%TO.N,ROW3*%
X90900000Y-7000000D03*
%TD*%
D16*
%TO.N,RST*%
X77535400Y-18460000D03*
X76594400Y-31830700D03*
%TD*%
%TO.N,ROW2*%
D17*
X80970000Y-24693400D02*
X80970000Y-24810000D01*
X87840200Y-21940200D02*
X83723200Y-21940200D01*
X64537100Y-21562900D02*
X64537100Y-18453799D01*
X43100000Y-25000000D02*
X43100000Y-20325900D01*
X45001300Y-18424600D02*
X51345400Y-18424600D01*
X64537100Y-18453799D02*
X62605100Y-16521799D01*
X23190000Y-23090000D02*
X25100000Y-25000000D01*
X61827500Y-14842000D02*
X54928000Y-14842000D01*
X43100000Y-20325900D02*
X45001300Y-18424600D01*
X2190000Y-16000000D02*
X7100000Y-20910000D01*
X83723200Y-21940200D02*
X80970000Y-24693400D01*
X62605100Y-16521799D02*
X62605100Y-15619600D01*
X51345400Y-18424600D02*
X53770000Y-16000000D01*
X62605100Y-15619600D02*
X61827500Y-14842000D01*
X61100000Y-25000000D02*
X64537100Y-21562900D01*
X54928000Y-14842000D02*
X53770000Y-16000000D01*
X90900000Y-25000000D02*
X87840200Y-21940200D01*
X23190000Y-16000000D02*
X23190000Y-23090000D01*
X7100000Y-20910000D02*
X7100000Y-25000000D01*
%TO.N,COL2*%
X27200000Y-18023900D02*
X27200000Y-20070000D01*
X20310000Y-16000000D02*
X20310000Y-34000000D01*
X21413300Y-14896700D02*
X24072800Y-14896700D01*
X20310000Y-16000000D02*
X21413300Y-14896700D01*
X24072800Y-14896700D02*
X27200000Y-18023900D01*
%TO.N,COL5*%
X70312000Y-28699800D02*
X71504900Y-27506900D01*
X75858500Y-33090900D02*
X75858500Y-31860500D01*
X61390000Y-34000000D02*
X66690199Y-28699800D01*
X71710000Y-27301800D02*
X71710000Y-16000000D01*
X81200000Y-38070000D02*
X80837600Y-38070000D01*
X66690199Y-28699800D02*
X70312000Y-28699800D01*
X71504900Y-27506900D02*
X71710000Y-27301800D01*
X80837600Y-38070000D02*
X75858500Y-33090900D01*
X75858500Y-31860500D02*
X71504900Y-27506900D01*
%TO.N,ROW1*%
X61100000Y-43000000D02*
X64509700Y-39590300D01*
X64509700Y-39590300D02*
X75690300Y-39590300D01*
X75690300Y-39590300D02*
X79100000Y-43000000D01*
X64509700Y-39590300D02*
X64509700Y-34419700D01*
X43100000Y-34350000D02*
X43100000Y-43000000D01*
X23190000Y-41090000D02*
X25100000Y-43000000D01*
X23190000Y-34000000D02*
X23190000Y-41090000D01*
X9726500Y-39389700D02*
X12690000Y-36426200D01*
X43450000Y-34000000D02*
X43100000Y-34350000D01*
X2190000Y-34000000D02*
X7100000Y-38910000D01*
X79100000Y-43000000D02*
X85500000Y-36600000D01*
X85500000Y-36600000D02*
X85500000Y-34200000D01*
X80970000Y-22270000D02*
X79357800Y-23882200D01*
X7100000Y-38910000D02*
X7100000Y-39389700D01*
X79357800Y-27373900D02*
X80603900Y-28620000D01*
X64509700Y-34419700D02*
X64090000Y-34000000D01*
X81380700Y-28620000D02*
X85500000Y-32739300D01*
X7100000Y-39389700D02*
X7100000Y-43000000D01*
X85500000Y-32739300D02*
X85500000Y-34200000D01*
X7100000Y-39389700D02*
X9726500Y-39389700D01*
X12690000Y-36426200D02*
X12690000Y-34000000D01*
X79357800Y-23882200D02*
X79357800Y-27373900D01*
X80603900Y-28620000D02*
X81380700Y-28620000D01*
%TO.N,COL1*%
X9810000Y-16000000D02*
X9810000Y-19460000D01*
X9810000Y-16000000D02*
X9200000Y-15390000D01*
X9810000Y-20680000D02*
X9200000Y-20070000D01*
X9810000Y-34000000D02*
X9810000Y-37460000D01*
X37240000Y-3110000D02*
X36200000Y-2069999D01*
X51070000Y-3110000D02*
X37240000Y-3110000D01*
X51070000Y-16000000D02*
X51070000Y-3110000D01*
X63200000Y-2069999D02*
X62160000Y-3110000D01*
X9810000Y-37460000D02*
X9200000Y-38070000D01*
X9810000Y-34000000D02*
X9810000Y-20680000D01*
X9810000Y-19460000D02*
X9200000Y-20070000D01*
X9200000Y-15390000D02*
X9200000Y-2069999D01*
X62160000Y-3110000D02*
X51070000Y-3110000D01*
%TO.N,ROW3*%
X86425400Y-15874400D02*
X81500100Y-10949100D01*
X34450000Y-7000000D02*
X34100000Y-7000000D01*
X81500100Y-10949100D02*
X75205100Y-10949100D01*
X86425400Y-18478700D02*
X86425400Y-15874400D01*
X64090000Y-16000000D02*
X64090000Y-13364100D01*
X80970000Y-27350000D02*
X79769900Y-26149900D01*
X43450000Y-16000000D02*
X34450000Y-7000000D01*
X64090000Y-13364100D02*
X64090000Y-9990000D01*
X79769900Y-26149900D02*
X79769900Y-24321900D01*
X81364100Y-23540000D02*
X86425400Y-18478700D01*
X80551800Y-23540000D02*
X81364100Y-23540000D01*
X75205100Y-10949100D02*
X72790100Y-13364100D01*
X86425400Y-18478700D02*
X90900000Y-14004100D01*
X79769900Y-24321900D02*
X80551800Y-23540000D01*
X64090000Y-9990000D02*
X61100000Y-7000000D01*
X72790100Y-13364100D02*
X64090000Y-13364100D01*
X90900000Y-14004100D02*
X90900000Y-7000000D01*
%TO.N,COL3*%
X27920100Y-22529900D02*
X30810000Y-19640000D01*
X30810000Y-19640000D02*
X30810000Y-16000000D01*
X45200000Y-38070000D02*
X45200000Y-20070000D01*
X30810000Y-34000000D02*
X27920100Y-31110100D01*
X27920100Y-31110100D02*
X27920100Y-22529900D01*
%TO.N,GND*%
X78137100Y-32862900D02*
X78137100Y-17482900D01*
X78137100Y-17482900D02*
X80970000Y-14650000D01*
X78000000Y-33000000D02*
X78137100Y-32862900D01*
X80970000Y-14650000D02*
X80970000Y-12110000D01*
%TO.N,COL4*%
X91170000Y-29930000D02*
X88800000Y-29930000D01*
X55593700Y-27676300D02*
X63200000Y-20070000D01*
X63200000Y-38070000D02*
X58519000Y-38070000D01*
X63200000Y-17810000D02*
X63200000Y-20070000D01*
X61390000Y-16000000D02*
X63200000Y-17810000D01*
X51070000Y-34000000D02*
X52214700Y-35144700D01*
X55593700Y-35144700D02*
X55593700Y-27676300D01*
X58519000Y-38070000D02*
X55593700Y-35144700D01*
X96210000Y-34970000D02*
X91170000Y-29930000D01*
X52214700Y-35144700D02*
X55593700Y-35144700D01*
%TO.N,RST*%
X77575000Y-18499600D02*
X77535400Y-18460000D01*
X76594400Y-31830700D02*
X77575000Y-30850100D01*
X77575000Y-30850100D02*
X77575000Y-18499600D01*
%TD*%
M02*
