%TF.GenerationSoftware,KiCad,Pcbnew,10.0.6*%
%TF.CreationDate,2026-09-28T01:07:30+08:00*%
%TF.ProjectId,claudepad,636c6175-6465-4706-9164-2e6b69636164,rev?*%
%TF.SameCoordinates,Original*%
%TF.FileFunction,Legend,Top*%
%TF.FilePolarity,Positive*%
%FSLAX46Y46*%
G04 Gerber Fmt 4.6, Leading zero omitted, Abs format (unit mm)*
G04 Created by KiCad (PCBNEW 10.0.6) date 2026-09-28 01:07:30*
%MOMM*%
%LPD*%
G01*
G04 APERTURE LIST*
%ADD10C,0.150000*%
%ADD11C,0.158750*%
%ADD12C,0.120000*%
G04 APERTURE END LIST*
D10*
X38085715Y-8547342D02*
X38085715Y-7347342D01*
X38085715Y-7347342D02*
X38485715Y-8204485D01*
X38485715Y-8204485D02*
X38885715Y-7347342D01*
X38885715Y-7347342D02*
X38885715Y-8547342D01*
X40142858Y-8433057D02*
X40085715Y-8490200D01*
X40085715Y-8490200D02*
X39914287Y-8547342D01*
X39914287Y-8547342D02*
X39800001Y-8547342D01*
X39800001Y-8547342D02*
X39628572Y-8490200D01*
X39628572Y-8490200D02*
X39514287Y-8375914D01*
X39514287Y-8375914D02*
X39457144Y-8261628D01*
X39457144Y-8261628D02*
X39400001Y-8033057D01*
X39400001Y-8033057D02*
X39400001Y-7861628D01*
X39400001Y-7861628D02*
X39457144Y-7633057D01*
X39457144Y-7633057D02*
X39514287Y-7518771D01*
X39514287Y-7518771D02*
X39628572Y-7404485D01*
X39628572Y-7404485D02*
X39800001Y-7347342D01*
X39800001Y-7347342D02*
X39914287Y-7347342D01*
X39914287Y-7347342D02*
X40085715Y-7404485D01*
X40085715Y-7404485D02*
X40142858Y-7461628D01*
X40657144Y-7347342D02*
X40657144Y-8318771D01*
X40657144Y-8318771D02*
X40714287Y-8433057D01*
X40714287Y-8433057D02*
X40771430Y-8490200D01*
X40771430Y-8490200D02*
X40885715Y-8547342D01*
X40885715Y-8547342D02*
X41114287Y-8547342D01*
X41114287Y-8547342D02*
X41228572Y-8490200D01*
X41228572Y-8490200D02*
X41285715Y-8433057D01*
X41285715Y-8433057D02*
X41342858Y-8318771D01*
X41342858Y-8318771D02*
X41342858Y-7347342D01*
X43000001Y-8547342D02*
X42885716Y-8490200D01*
X42885716Y-8490200D02*
X42828573Y-8433057D01*
X42828573Y-8433057D02*
X42771430Y-8318771D01*
X42771430Y-8318771D02*
X42771430Y-7975914D01*
X42771430Y-7975914D02*
X42828573Y-7861628D01*
X42828573Y-7861628D02*
X42885716Y-7804485D01*
X42885716Y-7804485D02*
X43000001Y-7747342D01*
X43000001Y-7747342D02*
X43171430Y-7747342D01*
X43171430Y-7747342D02*
X43285716Y-7804485D01*
X43285716Y-7804485D02*
X43342859Y-7861628D01*
X43342859Y-7861628D02*
X43400001Y-7975914D01*
X43400001Y-7975914D02*
X43400001Y-8318771D01*
X43400001Y-8318771D02*
X43342859Y-8433057D01*
X43342859Y-8433057D02*
X43285716Y-8490200D01*
X43285716Y-8490200D02*
X43171430Y-8547342D01*
X43171430Y-8547342D02*
X43000001Y-8547342D01*
X43914287Y-7747342D02*
X43914287Y-8547342D01*
X43914287Y-7861628D02*
X43971430Y-7804485D01*
X43971430Y-7804485D02*
X44085715Y-7747342D01*
X44085715Y-7747342D02*
X44257144Y-7747342D01*
X44257144Y-7747342D02*
X44371430Y-7804485D01*
X44371430Y-7804485D02*
X44428573Y-7918771D01*
X44428573Y-7918771D02*
X44428573Y-8547342D01*
X46314287Y-7918771D02*
X46485715Y-7975914D01*
X46485715Y-7975914D02*
X46542858Y-8033057D01*
X46542858Y-8033057D02*
X46600001Y-8147342D01*
X46600001Y-8147342D02*
X46600001Y-8318771D01*
X46600001Y-8318771D02*
X46542858Y-8433057D01*
X46542858Y-8433057D02*
X46485715Y-8490200D01*
X46485715Y-8490200D02*
X46371430Y-8547342D01*
X46371430Y-8547342D02*
X45914287Y-8547342D01*
X45914287Y-8547342D02*
X45914287Y-7347342D01*
X45914287Y-7347342D02*
X46314287Y-7347342D01*
X46314287Y-7347342D02*
X46428573Y-7404485D01*
X46428573Y-7404485D02*
X46485715Y-7461628D01*
X46485715Y-7461628D02*
X46542858Y-7575914D01*
X46542858Y-7575914D02*
X46542858Y-7690200D01*
X46542858Y-7690200D02*
X46485715Y-7804485D01*
X46485715Y-7804485D02*
X46428573Y-7861628D01*
X46428573Y-7861628D02*
X46314287Y-7918771D01*
X46314287Y-7918771D02*
X45914287Y-7918771D01*
X47057144Y-8204485D02*
X47628573Y-8204485D01*
X46942858Y-8547342D02*
X47342858Y-7347342D01*
X47342858Y-7347342D02*
X47742858Y-8547342D01*
X48828572Y-8433057D02*
X48771429Y-8490200D01*
X48771429Y-8490200D02*
X48600001Y-8547342D01*
X48600001Y-8547342D02*
X48485715Y-8547342D01*
X48485715Y-8547342D02*
X48314286Y-8490200D01*
X48314286Y-8490200D02*
X48200001Y-8375914D01*
X48200001Y-8375914D02*
X48142858Y-8261628D01*
X48142858Y-8261628D02*
X48085715Y-8033057D01*
X48085715Y-8033057D02*
X48085715Y-7861628D01*
X48085715Y-7861628D02*
X48142858Y-7633057D01*
X48142858Y-7633057D02*
X48200001Y-7518771D01*
X48200001Y-7518771D02*
X48314286Y-7404485D01*
X48314286Y-7404485D02*
X48485715Y-7347342D01*
X48485715Y-7347342D02*
X48600001Y-7347342D01*
X48600001Y-7347342D02*
X48771429Y-7404485D01*
X48771429Y-7404485D02*
X48828572Y-7461628D01*
X49342858Y-8547342D02*
X49342858Y-7347342D01*
X50028572Y-8547342D02*
X49514286Y-7861628D01*
X50028572Y-7347342D02*
X49342858Y-8033057D01*
X51800001Y-9004485D02*
X51742858Y-8947342D01*
X51742858Y-8947342D02*
X51628572Y-8775914D01*
X51628572Y-8775914D02*
X51571430Y-8661628D01*
X51571430Y-8661628D02*
X51514287Y-8490200D01*
X51514287Y-8490200D02*
X51457144Y-8204485D01*
X51457144Y-8204485D02*
X51457144Y-7975914D01*
X51457144Y-7975914D02*
X51514287Y-7690200D01*
X51514287Y-7690200D02*
X51571430Y-7518771D01*
X51571430Y-7518771D02*
X51628572Y-7404485D01*
X51628572Y-7404485D02*
X51742858Y-7233057D01*
X51742858Y-7233057D02*
X51800001Y-7175914D01*
X52257144Y-8547342D02*
X52257144Y-7347342D01*
X52257144Y-7347342D02*
X52942858Y-8547342D01*
X52942858Y-8547342D02*
X52942858Y-7347342D01*
X53685715Y-8547342D02*
X53571430Y-8490200D01*
X53571430Y-8490200D02*
X53514287Y-8433057D01*
X53514287Y-8433057D02*
X53457144Y-8318771D01*
X53457144Y-8318771D02*
X53457144Y-7975914D01*
X53457144Y-7975914D02*
X53514287Y-7861628D01*
X53514287Y-7861628D02*
X53571430Y-7804485D01*
X53571430Y-7804485D02*
X53685715Y-7747342D01*
X53685715Y-7747342D02*
X53857144Y-7747342D01*
X53857144Y-7747342D02*
X53971430Y-7804485D01*
X53971430Y-7804485D02*
X54028573Y-7861628D01*
X54028573Y-7861628D02*
X54085715Y-7975914D01*
X54085715Y-7975914D02*
X54085715Y-8318771D01*
X54085715Y-8318771D02*
X54028573Y-8433057D01*
X54028573Y-8433057D02*
X53971430Y-8490200D01*
X53971430Y-8490200D02*
X53857144Y-8547342D01*
X53857144Y-8547342D02*
X53685715Y-8547342D01*
X55171429Y-8547342D02*
X54600001Y-8547342D01*
X54600001Y-8547342D02*
X54600001Y-7347342D01*
X55742858Y-8547342D02*
X55628573Y-8490200D01*
X55628573Y-8490200D02*
X55571430Y-8433057D01*
X55571430Y-8433057D02*
X55514287Y-8318771D01*
X55514287Y-8318771D02*
X55514287Y-7975914D01*
X55514287Y-7975914D02*
X55571430Y-7861628D01*
X55571430Y-7861628D02*
X55628573Y-7804485D01*
X55628573Y-7804485D02*
X55742858Y-7747342D01*
X55742858Y-7747342D02*
X55914287Y-7747342D01*
X55914287Y-7747342D02*
X56028573Y-7804485D01*
X56028573Y-7804485D02*
X56085716Y-7861628D01*
X56085716Y-7861628D02*
X56142858Y-7975914D01*
X56142858Y-7975914D02*
X56142858Y-8318771D01*
X56142858Y-8318771D02*
X56085716Y-8433057D01*
X56085716Y-8433057D02*
X56028573Y-8490200D01*
X56028573Y-8490200D02*
X55914287Y-8547342D01*
X55914287Y-8547342D02*
X55742858Y-8547342D01*
X57171430Y-7747342D02*
X57171430Y-8718771D01*
X57171430Y-8718771D02*
X57114287Y-8833057D01*
X57114287Y-8833057D02*
X57057144Y-8890200D01*
X57057144Y-8890200D02*
X56942858Y-8947342D01*
X56942858Y-8947342D02*
X56771430Y-8947342D01*
X56771430Y-8947342D02*
X56657144Y-8890200D01*
X57171430Y-8490200D02*
X57057144Y-8547342D01*
X57057144Y-8547342D02*
X56828572Y-8547342D01*
X56828572Y-8547342D02*
X56714287Y-8490200D01*
X56714287Y-8490200D02*
X56657144Y-8433057D01*
X56657144Y-8433057D02*
X56600001Y-8318771D01*
X56600001Y-8318771D02*
X56600001Y-7975914D01*
X56600001Y-7975914D02*
X56657144Y-7861628D01*
X56657144Y-7861628D02*
X56714287Y-7804485D01*
X56714287Y-7804485D02*
X56828572Y-7747342D01*
X56828572Y-7747342D02*
X57057144Y-7747342D01*
X57057144Y-7747342D02*
X57171430Y-7804485D01*
X57914286Y-8547342D02*
X57800001Y-8490200D01*
X57800001Y-8490200D02*
X57742858Y-8433057D01*
X57742858Y-8433057D02*
X57685715Y-8318771D01*
X57685715Y-8318771D02*
X57685715Y-7975914D01*
X57685715Y-7975914D02*
X57742858Y-7861628D01*
X57742858Y-7861628D02*
X57800001Y-7804485D01*
X57800001Y-7804485D02*
X57914286Y-7747342D01*
X57914286Y-7747342D02*
X58085715Y-7747342D01*
X58085715Y-7747342D02*
X58200001Y-7804485D01*
X58200001Y-7804485D02*
X58257144Y-7861628D01*
X58257144Y-7861628D02*
X58314286Y-7975914D01*
X58314286Y-7975914D02*
X58314286Y-8318771D01*
X58314286Y-8318771D02*
X58257144Y-8433057D01*
X58257144Y-8433057D02*
X58200001Y-8490200D01*
X58200001Y-8490200D02*
X58085715Y-8547342D01*
X58085715Y-8547342D02*
X57914286Y-8547342D01*
X59742858Y-8547342D02*
X59742858Y-7347342D01*
X59742858Y-7347342D02*
X60200001Y-7347342D01*
X60200001Y-7347342D02*
X60314286Y-7404485D01*
X60314286Y-7404485D02*
X60371429Y-7461628D01*
X60371429Y-7461628D02*
X60428572Y-7575914D01*
X60428572Y-7575914D02*
X60428572Y-7747342D01*
X60428572Y-7747342D02*
X60371429Y-7861628D01*
X60371429Y-7861628D02*
X60314286Y-7918771D01*
X60314286Y-7918771D02*
X60200001Y-7975914D01*
X60200001Y-7975914D02*
X59742858Y-7975914D01*
X60942858Y-8547342D02*
X60942858Y-7747342D01*
X60942858Y-7975914D02*
X61000001Y-7861628D01*
X61000001Y-7861628D02*
X61057144Y-7804485D01*
X61057144Y-7804485D02*
X61171429Y-7747342D01*
X61171429Y-7747342D02*
X61285715Y-7747342D01*
X61857143Y-8547342D02*
X61742858Y-8490200D01*
X61742858Y-8490200D02*
X61685715Y-8433057D01*
X61685715Y-8433057D02*
X61628572Y-8318771D01*
X61628572Y-8318771D02*
X61628572Y-7975914D01*
X61628572Y-7975914D02*
X61685715Y-7861628D01*
X61685715Y-7861628D02*
X61742858Y-7804485D01*
X61742858Y-7804485D02*
X61857143Y-7747342D01*
X61857143Y-7747342D02*
X62028572Y-7747342D01*
X62028572Y-7747342D02*
X62142858Y-7804485D01*
X62142858Y-7804485D02*
X62200001Y-7861628D01*
X62200001Y-7861628D02*
X62257143Y-7975914D01*
X62257143Y-7975914D02*
X62257143Y-8318771D01*
X62257143Y-8318771D02*
X62200001Y-8433057D01*
X62200001Y-8433057D02*
X62142858Y-8490200D01*
X62142858Y-8490200D02*
X62028572Y-8547342D01*
X62028572Y-8547342D02*
X61857143Y-8547342D01*
X62771429Y-8547342D02*
X62771429Y-7347342D01*
X62771429Y-7347342D02*
X63171429Y-8204485D01*
X63171429Y-8204485D02*
X63571429Y-7347342D01*
X63571429Y-7347342D02*
X63571429Y-8547342D01*
X64142858Y-8547342D02*
X64142858Y-7747342D01*
X64142858Y-7347342D02*
X64085715Y-7404485D01*
X64085715Y-7404485D02*
X64142858Y-7461628D01*
X64142858Y-7461628D02*
X64200001Y-7404485D01*
X64200001Y-7404485D02*
X64142858Y-7347342D01*
X64142858Y-7347342D02*
X64142858Y-7461628D01*
X65228573Y-8490200D02*
X65114287Y-8547342D01*
X65114287Y-8547342D02*
X64885715Y-8547342D01*
X64885715Y-8547342D02*
X64771430Y-8490200D01*
X64771430Y-8490200D02*
X64714287Y-8433057D01*
X64714287Y-8433057D02*
X64657144Y-8318771D01*
X64657144Y-8318771D02*
X64657144Y-7975914D01*
X64657144Y-7975914D02*
X64714287Y-7861628D01*
X64714287Y-7861628D02*
X64771430Y-7804485D01*
X64771430Y-7804485D02*
X64885715Y-7747342D01*
X64885715Y-7747342D02*
X65114287Y-7747342D01*
X65114287Y-7747342D02*
X65228573Y-7804485D01*
X65742858Y-8547342D02*
X65742858Y-7747342D01*
X65742858Y-7975914D02*
X65800001Y-7861628D01*
X65800001Y-7861628D02*
X65857144Y-7804485D01*
X65857144Y-7804485D02*
X65971429Y-7747342D01*
X65971429Y-7747342D02*
X66085715Y-7747342D01*
X66657143Y-8547342D02*
X66542858Y-8490200D01*
X66542858Y-8490200D02*
X66485715Y-8433057D01*
X66485715Y-8433057D02*
X66428572Y-8318771D01*
X66428572Y-8318771D02*
X66428572Y-7975914D01*
X66428572Y-7975914D02*
X66485715Y-7861628D01*
X66485715Y-7861628D02*
X66542858Y-7804485D01*
X66542858Y-7804485D02*
X66657143Y-7747342D01*
X66657143Y-7747342D02*
X66828572Y-7747342D01*
X66828572Y-7747342D02*
X66942858Y-7804485D01*
X66942858Y-7804485D02*
X67000001Y-7861628D01*
X67000001Y-7861628D02*
X67057143Y-7975914D01*
X67057143Y-7975914D02*
X67057143Y-8318771D01*
X67057143Y-8318771D02*
X67000001Y-8433057D01*
X67000001Y-8433057D02*
X66942858Y-8490200D01*
X66942858Y-8490200D02*
X66828572Y-8547342D01*
X66828572Y-8547342D02*
X66657143Y-8547342D01*
X68485715Y-8547342D02*
X68485715Y-7347342D01*
X68485715Y-7347342D02*
X69171429Y-8547342D01*
X69171429Y-8547342D02*
X69171429Y-7347342D01*
X70428572Y-8547342D02*
X70028572Y-7975914D01*
X69742858Y-8547342D02*
X69742858Y-7347342D01*
X69742858Y-7347342D02*
X70200001Y-7347342D01*
X70200001Y-7347342D02*
X70314286Y-7404485D01*
X70314286Y-7404485D02*
X70371429Y-7461628D01*
X70371429Y-7461628D02*
X70428572Y-7575914D01*
X70428572Y-7575914D02*
X70428572Y-7747342D01*
X70428572Y-7747342D02*
X70371429Y-7861628D01*
X70371429Y-7861628D02*
X70314286Y-7918771D01*
X70314286Y-7918771D02*
X70200001Y-7975914D01*
X70200001Y-7975914D02*
X69742858Y-7975914D01*
X71342858Y-7918771D02*
X70942858Y-7918771D01*
X70942858Y-8547342D02*
X70942858Y-7347342D01*
X70942858Y-7347342D02*
X71514286Y-7347342D01*
X72542857Y-7347342D02*
X71971429Y-7347342D01*
X71971429Y-7347342D02*
X71914286Y-7918771D01*
X71914286Y-7918771D02*
X71971429Y-7861628D01*
X71971429Y-7861628D02*
X72085715Y-7804485D01*
X72085715Y-7804485D02*
X72371429Y-7804485D01*
X72371429Y-7804485D02*
X72485715Y-7861628D01*
X72485715Y-7861628D02*
X72542857Y-7918771D01*
X72542857Y-7918771D02*
X72600000Y-8033057D01*
X72600000Y-8033057D02*
X72600000Y-8318771D01*
X72600000Y-8318771D02*
X72542857Y-8433057D01*
X72542857Y-8433057D02*
X72485715Y-8490200D01*
X72485715Y-8490200D02*
X72371429Y-8547342D01*
X72371429Y-8547342D02*
X72085715Y-8547342D01*
X72085715Y-8547342D02*
X71971429Y-8490200D01*
X71971429Y-8490200D02*
X71914286Y-8433057D01*
X73057143Y-7461628D02*
X73114286Y-7404485D01*
X73114286Y-7404485D02*
X73228572Y-7347342D01*
X73228572Y-7347342D02*
X73514286Y-7347342D01*
X73514286Y-7347342D02*
X73628572Y-7404485D01*
X73628572Y-7404485D02*
X73685714Y-7461628D01*
X73685714Y-7461628D02*
X73742857Y-7575914D01*
X73742857Y-7575914D02*
X73742857Y-7690200D01*
X73742857Y-7690200D02*
X73685714Y-7861628D01*
X73685714Y-7861628D02*
X73000000Y-8547342D01*
X73000000Y-8547342D02*
X73742857Y-8547342D01*
X74428571Y-7861628D02*
X74314286Y-7804485D01*
X74314286Y-7804485D02*
X74257143Y-7747342D01*
X74257143Y-7747342D02*
X74200000Y-7633057D01*
X74200000Y-7633057D02*
X74200000Y-7575914D01*
X74200000Y-7575914D02*
X74257143Y-7461628D01*
X74257143Y-7461628D02*
X74314286Y-7404485D01*
X74314286Y-7404485D02*
X74428571Y-7347342D01*
X74428571Y-7347342D02*
X74657143Y-7347342D01*
X74657143Y-7347342D02*
X74771429Y-7404485D01*
X74771429Y-7404485D02*
X74828571Y-7461628D01*
X74828571Y-7461628D02*
X74885714Y-7575914D01*
X74885714Y-7575914D02*
X74885714Y-7633057D01*
X74885714Y-7633057D02*
X74828571Y-7747342D01*
X74828571Y-7747342D02*
X74771429Y-7804485D01*
X74771429Y-7804485D02*
X74657143Y-7861628D01*
X74657143Y-7861628D02*
X74428571Y-7861628D01*
X74428571Y-7861628D02*
X74314286Y-7918771D01*
X74314286Y-7918771D02*
X74257143Y-7975914D01*
X74257143Y-7975914D02*
X74200000Y-8090200D01*
X74200000Y-8090200D02*
X74200000Y-8318771D01*
X74200000Y-8318771D02*
X74257143Y-8433057D01*
X74257143Y-8433057D02*
X74314286Y-8490200D01*
X74314286Y-8490200D02*
X74428571Y-8547342D01*
X74428571Y-8547342D02*
X74657143Y-8547342D01*
X74657143Y-8547342D02*
X74771429Y-8490200D01*
X74771429Y-8490200D02*
X74828571Y-8433057D01*
X74828571Y-8433057D02*
X74885714Y-8318771D01*
X74885714Y-8318771D02*
X74885714Y-8090200D01*
X74885714Y-8090200D02*
X74828571Y-7975914D01*
X74828571Y-7975914D02*
X74771429Y-7918771D01*
X74771429Y-7918771D02*
X74657143Y-7861628D01*
X75914286Y-7747342D02*
X75914286Y-8547342D01*
X75628571Y-7290200D02*
X75342857Y-8147342D01*
X75342857Y-8147342D02*
X76085714Y-8147342D01*
X76771428Y-7347342D02*
X76885714Y-7347342D01*
X76885714Y-7347342D02*
X77000000Y-7404485D01*
X77000000Y-7404485D02*
X77057143Y-7461628D01*
X77057143Y-7461628D02*
X77114285Y-7575914D01*
X77114285Y-7575914D02*
X77171428Y-7804485D01*
X77171428Y-7804485D02*
X77171428Y-8090200D01*
X77171428Y-8090200D02*
X77114285Y-8318771D01*
X77114285Y-8318771D02*
X77057143Y-8433057D01*
X77057143Y-8433057D02*
X77000000Y-8490200D01*
X77000000Y-8490200D02*
X76885714Y-8547342D01*
X76885714Y-8547342D02*
X76771428Y-8547342D01*
X76771428Y-8547342D02*
X76657143Y-8490200D01*
X76657143Y-8490200D02*
X76600000Y-8433057D01*
X76600000Y-8433057D02*
X76542857Y-8318771D01*
X76542857Y-8318771D02*
X76485714Y-8090200D01*
X76485714Y-8090200D02*
X76485714Y-7804485D01*
X76485714Y-7804485D02*
X76542857Y-7575914D01*
X76542857Y-7575914D02*
X76600000Y-7461628D01*
X76600000Y-7461628D02*
X76657143Y-7404485D01*
X76657143Y-7404485D02*
X76771428Y-7347342D01*
X77571428Y-9004485D02*
X77628571Y-8947342D01*
X77628571Y-8947342D02*
X77742857Y-8775914D01*
X77742857Y-8775914D02*
X77800000Y-8661628D01*
X77800000Y-8661628D02*
X77857142Y-8490200D01*
X77857142Y-8490200D02*
X77914285Y-8204485D01*
X77914285Y-8204485D02*
X77914285Y-7975914D01*
X77914285Y-7975914D02*
X77857142Y-7690200D01*
X77857142Y-7690200D02*
X77800000Y-7518771D01*
X77800000Y-7518771D02*
X77742857Y-7404485D01*
X77742857Y-7404485D02*
X77628571Y-7233057D01*
X77628571Y-7233057D02*
X77571428Y-7175914D01*
X68885713Y-44847342D02*
X68885713Y-45818771D01*
X68885713Y-45818771D02*
X68942856Y-45933057D01*
X68942856Y-45933057D02*
X68999999Y-45990200D01*
X68999999Y-45990200D02*
X69114284Y-46047342D01*
X69114284Y-46047342D02*
X69342856Y-46047342D01*
X69342856Y-46047342D02*
X69457141Y-45990200D01*
X69457141Y-45990200D02*
X69514284Y-45933057D01*
X69514284Y-45933057D02*
X69571427Y-45818771D01*
X69571427Y-45818771D02*
X69571427Y-44847342D01*
X70085713Y-45990200D02*
X70257142Y-46047342D01*
X70257142Y-46047342D02*
X70542856Y-46047342D01*
X70542856Y-46047342D02*
X70657142Y-45990200D01*
X70657142Y-45990200D02*
X70714284Y-45933057D01*
X70714284Y-45933057D02*
X70771427Y-45818771D01*
X70771427Y-45818771D02*
X70771427Y-45704485D01*
X70771427Y-45704485D02*
X70714284Y-45590200D01*
X70714284Y-45590200D02*
X70657142Y-45533057D01*
X70657142Y-45533057D02*
X70542856Y-45475914D01*
X70542856Y-45475914D02*
X70314284Y-45418771D01*
X70314284Y-45418771D02*
X70199999Y-45361628D01*
X70199999Y-45361628D02*
X70142856Y-45304485D01*
X70142856Y-45304485D02*
X70085713Y-45190200D01*
X70085713Y-45190200D02*
X70085713Y-45075914D01*
X70085713Y-45075914D02*
X70142856Y-44961628D01*
X70142856Y-44961628D02*
X70199999Y-44904485D01*
X70199999Y-44904485D02*
X70314284Y-44847342D01*
X70314284Y-44847342D02*
X70599999Y-44847342D01*
X70599999Y-44847342D02*
X70771427Y-44904485D01*
X71685713Y-45418771D02*
X71857141Y-45475914D01*
X71857141Y-45475914D02*
X71914284Y-45533057D01*
X71914284Y-45533057D02*
X71971427Y-45647342D01*
X71971427Y-45647342D02*
X71971427Y-45818771D01*
X71971427Y-45818771D02*
X71914284Y-45933057D01*
X71914284Y-45933057D02*
X71857141Y-45990200D01*
X71857141Y-45990200D02*
X71742856Y-46047342D01*
X71742856Y-46047342D02*
X71285713Y-46047342D01*
X71285713Y-46047342D02*
X71285713Y-44847342D01*
X71285713Y-44847342D02*
X71685713Y-44847342D01*
X71685713Y-44847342D02*
X71799999Y-44904485D01*
X71799999Y-44904485D02*
X71857141Y-44961628D01*
X71857141Y-44961628D02*
X71914284Y-45075914D01*
X71914284Y-45075914D02*
X71914284Y-45190200D01*
X71914284Y-45190200D02*
X71857141Y-45304485D01*
X71857141Y-45304485D02*
X71799999Y-45361628D01*
X71799999Y-45361628D02*
X71685713Y-45418771D01*
X71685713Y-45418771D02*
X71285713Y-45418771D01*
X73399999Y-45590200D02*
X74314285Y-45590200D01*
X74885713Y-45247342D02*
X75799999Y-45590200D01*
X75799999Y-45590200D02*
X74885713Y-45933057D01*
X77971427Y-46047342D02*
X77571427Y-45475914D01*
X77285713Y-46047342D02*
X77285713Y-44847342D01*
X77285713Y-44847342D02*
X77742856Y-44847342D01*
X77742856Y-44847342D02*
X77857141Y-44904485D01*
X77857141Y-44904485D02*
X77914284Y-44961628D01*
X77914284Y-44961628D02*
X77971427Y-45075914D01*
X77971427Y-45075914D02*
X77971427Y-45247342D01*
X77971427Y-45247342D02*
X77914284Y-45361628D01*
X77914284Y-45361628D02*
X77857141Y-45418771D01*
X77857141Y-45418771D02*
X77742856Y-45475914D01*
X77742856Y-45475914D02*
X77285713Y-45475914D01*
X78485713Y-46047342D02*
X78485713Y-44847342D01*
X79685713Y-44904485D02*
X79571428Y-44847342D01*
X79571428Y-44847342D02*
X79399999Y-44847342D01*
X79399999Y-44847342D02*
X79228570Y-44904485D01*
X79228570Y-44904485D02*
X79114285Y-45018771D01*
X79114285Y-45018771D02*
X79057142Y-45133057D01*
X79057142Y-45133057D02*
X78999999Y-45361628D01*
X78999999Y-45361628D02*
X78999999Y-45533057D01*
X78999999Y-45533057D02*
X79057142Y-45761628D01*
X79057142Y-45761628D02*
X79114285Y-45875914D01*
X79114285Y-45875914D02*
X79228570Y-45990200D01*
X79228570Y-45990200D02*
X79399999Y-46047342D01*
X79399999Y-46047342D02*
X79514285Y-46047342D01*
X79514285Y-46047342D02*
X79685713Y-45990200D01*
X79685713Y-45990200D02*
X79742856Y-45933057D01*
X79742856Y-45933057D02*
X79742856Y-45533057D01*
X79742856Y-45533057D02*
X79514285Y-45533057D01*
X80257142Y-46047342D02*
X80257142Y-44847342D01*
X80257142Y-45418771D02*
X80942856Y-45418771D01*
X80942856Y-46047342D02*
X80942856Y-44847342D01*
X81342856Y-44847342D02*
X82028571Y-44847342D01*
X81685713Y-46047342D02*
X81685713Y-44847342D01*
X83228571Y-44847342D02*
X83514285Y-46047342D01*
X83514285Y-46047342D02*
X83742857Y-45190200D01*
X83742857Y-45190200D02*
X83971428Y-46047342D01*
X83971428Y-46047342D02*
X84257143Y-44847342D01*
X84657143Y-45704485D02*
X85228572Y-45704485D01*
X84542857Y-46047342D02*
X84942857Y-44847342D01*
X84942857Y-44847342D02*
X85342857Y-46047342D01*
X86314285Y-46047342D02*
X85742857Y-46047342D01*
X85742857Y-46047342D02*
X85742857Y-44847342D01*
X87285714Y-46047342D02*
X86714286Y-46047342D01*
X86714286Y-46047342D02*
X86714286Y-44847342D01*
X15761905Y-14334819D02*
X15761905Y-13334819D01*
X15761905Y-13334819D02*
X16000000Y-13334819D01*
X16000000Y-13334819D02*
X16142857Y-13382438D01*
X16142857Y-13382438D02*
X16238095Y-13477676D01*
X16238095Y-13477676D02*
X16285714Y-13572914D01*
X16285714Y-13572914D02*
X16333333Y-13763390D01*
X16333333Y-13763390D02*
X16333333Y-13906247D01*
X16333333Y-13906247D02*
X16285714Y-14096723D01*
X16285714Y-14096723D02*
X16238095Y-14191961D01*
X16238095Y-14191961D02*
X16142857Y-14287200D01*
X16142857Y-14287200D02*
X16000000Y-14334819D01*
X16000000Y-14334819D02*
X15761905Y-14334819D01*
X16904762Y-13763390D02*
X16809524Y-13715771D01*
X16809524Y-13715771D02*
X16761905Y-13668152D01*
X16761905Y-13668152D02*
X16714286Y-13572914D01*
X16714286Y-13572914D02*
X16714286Y-13525295D01*
X16714286Y-13525295D02*
X16761905Y-13430057D01*
X16761905Y-13430057D02*
X16809524Y-13382438D01*
X16809524Y-13382438D02*
X16904762Y-13334819D01*
X16904762Y-13334819D02*
X17095238Y-13334819D01*
X17095238Y-13334819D02*
X17190476Y-13382438D01*
X17190476Y-13382438D02*
X17238095Y-13430057D01*
X17238095Y-13430057D02*
X17285714Y-13525295D01*
X17285714Y-13525295D02*
X17285714Y-13572914D01*
X17285714Y-13572914D02*
X17238095Y-13668152D01*
X17238095Y-13668152D02*
X17190476Y-13715771D01*
X17190476Y-13715771D02*
X17095238Y-13763390D01*
X17095238Y-13763390D02*
X16904762Y-13763390D01*
X16904762Y-13763390D02*
X16809524Y-13811009D01*
X16809524Y-13811009D02*
X16761905Y-13858628D01*
X16761905Y-13858628D02*
X16714286Y-13953866D01*
X16714286Y-13953866D02*
X16714286Y-14144342D01*
X16714286Y-14144342D02*
X16761905Y-14239580D01*
X16761905Y-14239580D02*
X16809524Y-14287200D01*
X16809524Y-14287200D02*
X16904762Y-14334819D01*
X16904762Y-14334819D02*
X17095238Y-14334819D01*
X17095238Y-14334819D02*
X17190476Y-14287200D01*
X17190476Y-14287200D02*
X17238095Y-14239580D01*
X17238095Y-14239580D02*
X17285714Y-14144342D01*
X17285714Y-14144342D02*
X17285714Y-13953866D01*
X17285714Y-13953866D02*
X17238095Y-13858628D01*
X17238095Y-13858628D02*
X17190476Y-13811009D01*
X17190476Y-13811009D02*
X17095238Y-13763390D01*
X12428095Y-14654819D02*
X12428095Y-13654819D01*
X12999523Y-14654819D02*
X12570952Y-14083390D01*
X12999523Y-13654819D02*
X12428095Y-14226247D01*
D11*
X83306666Y-43518795D02*
X83488095Y-43579271D01*
X83488095Y-43579271D02*
X83790476Y-43579271D01*
X83790476Y-43579271D02*
X83911428Y-43518795D01*
X83911428Y-43518795D02*
X83971904Y-43458318D01*
X83971904Y-43458318D02*
X84032381Y-43337366D01*
X84032381Y-43337366D02*
X84032381Y-43216414D01*
X84032381Y-43216414D02*
X83971904Y-43095461D01*
X83971904Y-43095461D02*
X83911428Y-43034985D01*
X83911428Y-43034985D02*
X83790476Y-42974509D01*
X83790476Y-42974509D02*
X83548571Y-42914033D01*
X83548571Y-42914033D02*
X83427619Y-42853556D01*
X83427619Y-42853556D02*
X83367142Y-42793080D01*
X83367142Y-42793080D02*
X83306666Y-42672128D01*
X83306666Y-42672128D02*
X83306666Y-42551175D01*
X83306666Y-42551175D02*
X83367142Y-42430223D01*
X83367142Y-42430223D02*
X83427619Y-42369747D01*
X83427619Y-42369747D02*
X83548571Y-42309271D01*
X83548571Y-42309271D02*
X83850952Y-42309271D01*
X83850952Y-42309271D02*
X84032381Y-42369747D01*
X84455714Y-42309271D02*
X84758095Y-43579271D01*
X84758095Y-43579271D02*
X85000000Y-42672128D01*
X85000000Y-42672128D02*
X85241905Y-43579271D01*
X85241905Y-43579271D02*
X85544286Y-42309271D01*
X86632857Y-42309271D02*
X86028095Y-42309271D01*
X86028095Y-42309271D02*
X85967619Y-42914033D01*
X85967619Y-42914033D02*
X86028095Y-42853556D01*
X86028095Y-42853556D02*
X86149048Y-42793080D01*
X86149048Y-42793080D02*
X86451429Y-42793080D01*
X86451429Y-42793080D02*
X86572381Y-42853556D01*
X86572381Y-42853556D02*
X86632857Y-42914033D01*
X86632857Y-42914033D02*
X86693334Y-43034985D01*
X86693334Y-43034985D02*
X86693334Y-43337366D01*
X86693334Y-43337366D02*
X86632857Y-43458318D01*
X86632857Y-43458318D02*
X86572381Y-43518795D01*
X86572381Y-43518795D02*
X86451429Y-43579271D01*
X86451429Y-43579271D02*
X86149048Y-43579271D01*
X86149048Y-43579271D02*
X86028095Y-43518795D01*
X86028095Y-43518795D02*
X85967619Y-43458318D01*
X37701904Y-7518795D02*
X37883333Y-7579271D01*
X37883333Y-7579271D02*
X38185714Y-7579271D01*
X38185714Y-7579271D02*
X38306666Y-7518795D01*
X38306666Y-7518795D02*
X38367142Y-7458318D01*
X38367142Y-7458318D02*
X38427619Y-7337366D01*
X38427619Y-7337366D02*
X38427619Y-7216414D01*
X38427619Y-7216414D02*
X38367142Y-7095461D01*
X38367142Y-7095461D02*
X38306666Y-7034985D01*
X38306666Y-7034985D02*
X38185714Y-6974509D01*
X38185714Y-6974509D02*
X37943809Y-6914033D01*
X37943809Y-6914033D02*
X37822857Y-6853556D01*
X37822857Y-6853556D02*
X37762380Y-6793080D01*
X37762380Y-6793080D02*
X37701904Y-6672128D01*
X37701904Y-6672128D02*
X37701904Y-6551175D01*
X37701904Y-6551175D02*
X37762380Y-6430223D01*
X37762380Y-6430223D02*
X37822857Y-6369747D01*
X37822857Y-6369747D02*
X37943809Y-6309271D01*
X37943809Y-6309271D02*
X38246190Y-6309271D01*
X38246190Y-6309271D02*
X38427619Y-6369747D01*
X38850952Y-6309271D02*
X39153333Y-7579271D01*
X39153333Y-7579271D02*
X39395238Y-6672128D01*
X39395238Y-6672128D02*
X39637143Y-7579271D01*
X39637143Y-7579271D02*
X39939524Y-6309271D01*
X41088572Y-7579271D02*
X40362857Y-7579271D01*
X40725714Y-7579271D02*
X40725714Y-6309271D01*
X40725714Y-6309271D02*
X40604762Y-6490699D01*
X40604762Y-6490699D02*
X40483810Y-6611652D01*
X40483810Y-6611652D02*
X40362857Y-6672128D01*
X41572381Y-6430223D02*
X41632857Y-6369747D01*
X41632857Y-6369747D02*
X41753810Y-6309271D01*
X41753810Y-6309271D02*
X42056191Y-6309271D01*
X42056191Y-6309271D02*
X42177143Y-6369747D01*
X42177143Y-6369747D02*
X42237619Y-6430223D01*
X42237619Y-6430223D02*
X42298096Y-6551175D01*
X42298096Y-6551175D02*
X42298096Y-6672128D01*
X42298096Y-6672128D02*
X42237619Y-6853556D01*
X42237619Y-6853556D02*
X41511905Y-7579271D01*
X41511905Y-7579271D02*
X42298096Y-7579271D01*
D10*
X5261905Y-32334819D02*
X5261905Y-31334819D01*
X5261905Y-31334819D02*
X5500000Y-31334819D01*
X5500000Y-31334819D02*
X5642857Y-31382438D01*
X5642857Y-31382438D02*
X5738095Y-31477676D01*
X5738095Y-31477676D02*
X5785714Y-31572914D01*
X5785714Y-31572914D02*
X5833333Y-31763390D01*
X5833333Y-31763390D02*
X5833333Y-31906247D01*
X5833333Y-31906247D02*
X5785714Y-32096723D01*
X5785714Y-32096723D02*
X5738095Y-32191961D01*
X5738095Y-32191961D02*
X5642857Y-32287200D01*
X5642857Y-32287200D02*
X5500000Y-32334819D01*
X5500000Y-32334819D02*
X5261905Y-32334819D01*
X6785714Y-32334819D02*
X6214286Y-32334819D01*
X6500000Y-32334819D02*
X6500000Y-31334819D01*
X6500000Y-31334819D02*
X6404762Y-31477676D01*
X6404762Y-31477676D02*
X6309524Y-31572914D01*
X6309524Y-31572914D02*
X6214286Y-31620533D01*
X1928095Y-32654819D02*
X1928095Y-31654819D01*
X2499523Y-32654819D02*
X2070952Y-32083390D01*
X2499523Y-31654819D02*
X1928095Y-32226247D01*
D11*
X701904Y-23579271D02*
X701904Y-22309271D01*
X701904Y-22309271D02*
X1185714Y-22309271D01*
X1185714Y-22309271D02*
X1306666Y-22369747D01*
X1306666Y-22369747D02*
X1367143Y-22430223D01*
X1367143Y-22430223D02*
X1427619Y-22551175D01*
X1427619Y-22551175D02*
X1427619Y-22732604D01*
X1427619Y-22732604D02*
X1367143Y-22853556D01*
X1367143Y-22853556D02*
X1306666Y-22914033D01*
X1306666Y-22914033D02*
X1185714Y-22974509D01*
X1185714Y-22974509D02*
X701904Y-22974509D01*
X1850952Y-22309271D02*
X2153333Y-23579271D01*
X2153333Y-23579271D02*
X2395238Y-22672128D01*
X2395238Y-22672128D02*
X2637143Y-23579271D01*
X2637143Y-23579271D02*
X2939524Y-22309271D01*
X4149048Y-23579271D02*
X3725714Y-22974509D01*
X3423333Y-23579271D02*
X3423333Y-22309271D01*
X3423333Y-22309271D02*
X3907143Y-22309271D01*
X3907143Y-22309271D02*
X4028095Y-22369747D01*
X4028095Y-22369747D02*
X4088572Y-22430223D01*
X4088572Y-22430223D02*
X4149048Y-22551175D01*
X4149048Y-22551175D02*
X4149048Y-22732604D01*
X4149048Y-22732604D02*
X4088572Y-22853556D01*
X4088572Y-22853556D02*
X4028095Y-22914033D01*
X4028095Y-22914033D02*
X3907143Y-22974509D01*
X3907143Y-22974509D02*
X3423333Y-22974509D01*
X4632857Y-22430223D02*
X4693333Y-22369747D01*
X4693333Y-22369747D02*
X4814286Y-22309271D01*
X4814286Y-22309271D02*
X5116667Y-22309271D01*
X5116667Y-22309271D02*
X5237619Y-22369747D01*
X5237619Y-22369747D02*
X5298095Y-22430223D01*
X5298095Y-22430223D02*
X5358572Y-22551175D01*
X5358572Y-22551175D02*
X5358572Y-22672128D01*
X5358572Y-22672128D02*
X5298095Y-22853556D01*
X5298095Y-22853556D02*
X4572381Y-23579271D01*
X4572381Y-23579271D02*
X5358572Y-23579271D01*
X47306666Y-25518795D02*
X47488095Y-25579271D01*
X47488095Y-25579271D02*
X47790476Y-25579271D01*
X47790476Y-25579271D02*
X47911428Y-25518795D01*
X47911428Y-25518795D02*
X47971904Y-25458318D01*
X47971904Y-25458318D02*
X48032381Y-25337366D01*
X48032381Y-25337366D02*
X48032381Y-25216414D01*
X48032381Y-25216414D02*
X47971904Y-25095461D01*
X47971904Y-25095461D02*
X47911428Y-25034985D01*
X47911428Y-25034985D02*
X47790476Y-24974509D01*
X47790476Y-24974509D02*
X47548571Y-24914033D01*
X47548571Y-24914033D02*
X47427619Y-24853556D01*
X47427619Y-24853556D02*
X47367142Y-24793080D01*
X47367142Y-24793080D02*
X47306666Y-24672128D01*
X47306666Y-24672128D02*
X47306666Y-24551175D01*
X47306666Y-24551175D02*
X47367142Y-24430223D01*
X47367142Y-24430223D02*
X47427619Y-24369747D01*
X47427619Y-24369747D02*
X47548571Y-24309271D01*
X47548571Y-24309271D02*
X47850952Y-24309271D01*
X47850952Y-24309271D02*
X48032381Y-24369747D01*
X48455714Y-24309271D02*
X48758095Y-25579271D01*
X48758095Y-25579271D02*
X49000000Y-24672128D01*
X49000000Y-24672128D02*
X49241905Y-25579271D01*
X49241905Y-25579271D02*
X49544286Y-24309271D01*
X50209524Y-24853556D02*
X50088572Y-24793080D01*
X50088572Y-24793080D02*
X50028095Y-24732604D01*
X50028095Y-24732604D02*
X49967619Y-24611652D01*
X49967619Y-24611652D02*
X49967619Y-24551175D01*
X49967619Y-24551175D02*
X50028095Y-24430223D01*
X50028095Y-24430223D02*
X50088572Y-24369747D01*
X50088572Y-24369747D02*
X50209524Y-24309271D01*
X50209524Y-24309271D02*
X50451429Y-24309271D01*
X50451429Y-24309271D02*
X50572381Y-24369747D01*
X50572381Y-24369747D02*
X50632857Y-24430223D01*
X50632857Y-24430223D02*
X50693334Y-24551175D01*
X50693334Y-24551175D02*
X50693334Y-24611652D01*
X50693334Y-24611652D02*
X50632857Y-24732604D01*
X50632857Y-24732604D02*
X50572381Y-24793080D01*
X50572381Y-24793080D02*
X50451429Y-24853556D01*
X50451429Y-24853556D02*
X50209524Y-24853556D01*
X50209524Y-24853556D02*
X50088572Y-24914033D01*
X50088572Y-24914033D02*
X50028095Y-24974509D01*
X50028095Y-24974509D02*
X49967619Y-25095461D01*
X49967619Y-25095461D02*
X49967619Y-25337366D01*
X49967619Y-25337366D02*
X50028095Y-25458318D01*
X50028095Y-25458318D02*
X50088572Y-25518795D01*
X50088572Y-25518795D02*
X50209524Y-25579271D01*
X50209524Y-25579271D02*
X50451429Y-25579271D01*
X50451429Y-25579271D02*
X50572381Y-25518795D01*
X50572381Y-25518795D02*
X50632857Y-25458318D01*
X50632857Y-25458318D02*
X50693334Y-25337366D01*
X50693334Y-25337366D02*
X50693334Y-25095461D01*
X50693334Y-25095461D02*
X50632857Y-24974509D01*
X50632857Y-24974509D02*
X50572381Y-24914033D01*
X50572381Y-24914033D02*
X50451429Y-24853556D01*
D10*
X56841904Y-32334819D02*
X56841904Y-31334819D01*
X56841904Y-31334819D02*
X57079999Y-31334819D01*
X57079999Y-31334819D02*
X57222856Y-31382438D01*
X57222856Y-31382438D02*
X57318094Y-31477676D01*
X57318094Y-31477676D02*
X57365713Y-31572914D01*
X57365713Y-31572914D02*
X57413332Y-31763390D01*
X57413332Y-31763390D02*
X57413332Y-31906247D01*
X57413332Y-31906247D02*
X57365713Y-32096723D01*
X57365713Y-32096723D02*
X57318094Y-32191961D01*
X57318094Y-32191961D02*
X57222856Y-32287200D01*
X57222856Y-32287200D02*
X57079999Y-32334819D01*
X57079999Y-32334819D02*
X56841904Y-32334819D01*
X58318094Y-31334819D02*
X57841904Y-31334819D01*
X57841904Y-31334819D02*
X57794285Y-31811009D01*
X57794285Y-31811009D02*
X57841904Y-31763390D01*
X57841904Y-31763390D02*
X57937142Y-31715771D01*
X57937142Y-31715771D02*
X58175237Y-31715771D01*
X58175237Y-31715771D02*
X58270475Y-31763390D01*
X58270475Y-31763390D02*
X58318094Y-31811009D01*
X58318094Y-31811009D02*
X58365713Y-31906247D01*
X58365713Y-31906247D02*
X58365713Y-32144342D01*
X58365713Y-32144342D02*
X58318094Y-32239580D01*
X58318094Y-32239580D02*
X58270475Y-32287200D01*
X58270475Y-32287200D02*
X58175237Y-32334819D01*
X58175237Y-32334819D02*
X57937142Y-32334819D01*
X57937142Y-32334819D02*
X57841904Y-32287200D01*
X57841904Y-32287200D02*
X57794285Y-32239580D01*
X53508094Y-32654819D02*
X53508094Y-31654819D01*
X54079522Y-32654819D02*
X53650951Y-32083390D01*
X54079522Y-31654819D02*
X53508094Y-32226247D01*
D11*
X29306666Y-25518795D02*
X29488095Y-25579271D01*
X29488095Y-25579271D02*
X29790476Y-25579271D01*
X29790476Y-25579271D02*
X29911428Y-25518795D01*
X29911428Y-25518795D02*
X29971904Y-25458318D01*
X29971904Y-25458318D02*
X30032381Y-25337366D01*
X30032381Y-25337366D02*
X30032381Y-25216414D01*
X30032381Y-25216414D02*
X29971904Y-25095461D01*
X29971904Y-25095461D02*
X29911428Y-25034985D01*
X29911428Y-25034985D02*
X29790476Y-24974509D01*
X29790476Y-24974509D02*
X29548571Y-24914033D01*
X29548571Y-24914033D02*
X29427619Y-24853556D01*
X29427619Y-24853556D02*
X29367142Y-24793080D01*
X29367142Y-24793080D02*
X29306666Y-24672128D01*
X29306666Y-24672128D02*
X29306666Y-24551175D01*
X29306666Y-24551175D02*
X29367142Y-24430223D01*
X29367142Y-24430223D02*
X29427619Y-24369747D01*
X29427619Y-24369747D02*
X29548571Y-24309271D01*
X29548571Y-24309271D02*
X29850952Y-24309271D01*
X29850952Y-24309271D02*
X30032381Y-24369747D01*
X30455714Y-24309271D02*
X30758095Y-25579271D01*
X30758095Y-25579271D02*
X31000000Y-24672128D01*
X31000000Y-24672128D02*
X31241905Y-25579271D01*
X31241905Y-25579271D02*
X31544286Y-24309271D01*
X31907143Y-24309271D02*
X32753810Y-24309271D01*
X32753810Y-24309271D02*
X32209524Y-25579271D01*
X76427619Y-32369747D02*
X76306666Y-32309271D01*
X76306666Y-32309271D02*
X76125238Y-32309271D01*
X76125238Y-32309271D02*
X75943809Y-32369747D01*
X75943809Y-32369747D02*
X75822857Y-32490699D01*
X75822857Y-32490699D02*
X75762380Y-32611652D01*
X75762380Y-32611652D02*
X75701904Y-32853556D01*
X75701904Y-32853556D02*
X75701904Y-33034985D01*
X75701904Y-33034985D02*
X75762380Y-33276890D01*
X75762380Y-33276890D02*
X75822857Y-33397842D01*
X75822857Y-33397842D02*
X75943809Y-33518795D01*
X75943809Y-33518795D02*
X76125238Y-33579271D01*
X76125238Y-33579271D02*
X76246190Y-33579271D01*
X76246190Y-33579271D02*
X76427619Y-33518795D01*
X76427619Y-33518795D02*
X76488095Y-33458318D01*
X76488095Y-33458318D02*
X76488095Y-33034985D01*
X76488095Y-33034985D02*
X76246190Y-33034985D01*
X77032380Y-33579271D02*
X77032380Y-32309271D01*
X77032380Y-32309271D02*
X77758095Y-33579271D01*
X77758095Y-33579271D02*
X77758095Y-32309271D01*
X78362856Y-33579271D02*
X78362856Y-32309271D01*
X78362856Y-32309271D02*
X78665237Y-32309271D01*
X78665237Y-32309271D02*
X78846666Y-32369747D01*
X78846666Y-32369747D02*
X78967618Y-32490699D01*
X78967618Y-32490699D02*
X79028095Y-32611652D01*
X79028095Y-32611652D02*
X79088571Y-32853556D01*
X79088571Y-32853556D02*
X79088571Y-33034985D01*
X79088571Y-33034985D02*
X79028095Y-33276890D01*
X79028095Y-33276890D02*
X78967618Y-33397842D01*
X78967618Y-33397842D02*
X78846666Y-33518795D01*
X78846666Y-33518795D02*
X78665237Y-33579271D01*
X78665237Y-33579271D02*
X78362856Y-33579271D01*
X80298095Y-33579271D02*
X79572380Y-33579271D01*
X79935237Y-33579271D02*
X79935237Y-32309271D01*
X79935237Y-32309271D02*
X79814285Y-32490699D01*
X79814285Y-32490699D02*
X79693333Y-32611652D01*
X79693333Y-32611652D02*
X79572380Y-32672128D01*
D10*
X80136666Y-4104819D02*
X80136666Y-4819104D01*
X80136666Y-4819104D02*
X80089047Y-4961961D01*
X80089047Y-4961961D02*
X79993809Y-5057200D01*
X79993809Y-5057200D02*
X79850952Y-5104819D01*
X79850952Y-5104819D02*
X79755714Y-5104819D01*
X80612857Y-5104819D02*
X80612857Y-4104819D01*
X80612857Y-4104819D02*
X80993809Y-4104819D01*
X80993809Y-4104819D02*
X81089047Y-4152438D01*
X81089047Y-4152438D02*
X81136666Y-4200057D01*
X81136666Y-4200057D02*
X81184285Y-4295295D01*
X81184285Y-4295295D02*
X81184285Y-4438152D01*
X81184285Y-4438152D02*
X81136666Y-4533390D01*
X81136666Y-4533390D02*
X81089047Y-4581009D01*
X81089047Y-4581009D02*
X80993809Y-4628628D01*
X80993809Y-4628628D02*
X80612857Y-4628628D01*
X82136666Y-5104819D02*
X81565238Y-5104819D01*
X81850952Y-5104819D02*
X81850952Y-4104819D01*
X81850952Y-4104819D02*
X81755714Y-4247676D01*
X81755714Y-4247676D02*
X81660476Y-4342914D01*
X81660476Y-4342914D02*
X81565238Y-4390533D01*
X26261905Y-32334819D02*
X26261905Y-31334819D01*
X26261905Y-31334819D02*
X26500000Y-31334819D01*
X26500000Y-31334819D02*
X26642857Y-31382438D01*
X26642857Y-31382438D02*
X26738095Y-31477676D01*
X26738095Y-31477676D02*
X26785714Y-31572914D01*
X26785714Y-31572914D02*
X26833333Y-31763390D01*
X26833333Y-31763390D02*
X26833333Y-31906247D01*
X26833333Y-31906247D02*
X26785714Y-32096723D01*
X26785714Y-32096723D02*
X26738095Y-32191961D01*
X26738095Y-32191961D02*
X26642857Y-32287200D01*
X26642857Y-32287200D02*
X26500000Y-32334819D01*
X26500000Y-32334819D02*
X26261905Y-32334819D01*
X27166667Y-31334819D02*
X27785714Y-31334819D01*
X27785714Y-31334819D02*
X27452381Y-31715771D01*
X27452381Y-31715771D02*
X27595238Y-31715771D01*
X27595238Y-31715771D02*
X27690476Y-31763390D01*
X27690476Y-31763390D02*
X27738095Y-31811009D01*
X27738095Y-31811009D02*
X27785714Y-31906247D01*
X27785714Y-31906247D02*
X27785714Y-32144342D01*
X27785714Y-32144342D02*
X27738095Y-32239580D01*
X27738095Y-32239580D02*
X27690476Y-32287200D01*
X27690476Y-32287200D02*
X27595238Y-32334819D01*
X27595238Y-32334819D02*
X27309524Y-32334819D01*
X27309524Y-32334819D02*
X27214286Y-32287200D01*
X27214286Y-32287200D02*
X27166667Y-32239580D01*
X22928095Y-32654819D02*
X22928095Y-31654819D01*
X23499523Y-32654819D02*
X23070952Y-32083390D01*
X23499523Y-31654819D02*
X22928095Y-32226247D01*
X56365713Y-14334819D02*
X56365713Y-13334819D01*
X56365713Y-13334819D02*
X56603808Y-13334819D01*
X56603808Y-13334819D02*
X56746665Y-13382438D01*
X56746665Y-13382438D02*
X56841903Y-13477676D01*
X56841903Y-13477676D02*
X56889522Y-13572914D01*
X56889522Y-13572914D02*
X56937141Y-13763390D01*
X56937141Y-13763390D02*
X56937141Y-13906247D01*
X56937141Y-13906247D02*
X56889522Y-14096723D01*
X56889522Y-14096723D02*
X56841903Y-14191961D01*
X56841903Y-14191961D02*
X56746665Y-14287200D01*
X56746665Y-14287200D02*
X56603808Y-14334819D01*
X56603808Y-14334819D02*
X56365713Y-14334819D01*
X57889522Y-14334819D02*
X57318094Y-14334819D01*
X57603808Y-14334819D02*
X57603808Y-13334819D01*
X57603808Y-13334819D02*
X57508570Y-13477676D01*
X57508570Y-13477676D02*
X57413332Y-13572914D01*
X57413332Y-13572914D02*
X57318094Y-13620533D01*
X58508570Y-13334819D02*
X58603808Y-13334819D01*
X58603808Y-13334819D02*
X58699046Y-13382438D01*
X58699046Y-13382438D02*
X58746665Y-13430057D01*
X58746665Y-13430057D02*
X58794284Y-13525295D01*
X58794284Y-13525295D02*
X58841903Y-13715771D01*
X58841903Y-13715771D02*
X58841903Y-13953866D01*
X58841903Y-13953866D02*
X58794284Y-14144342D01*
X58794284Y-14144342D02*
X58746665Y-14239580D01*
X58746665Y-14239580D02*
X58699046Y-14287200D01*
X58699046Y-14287200D02*
X58603808Y-14334819D01*
X58603808Y-14334819D02*
X58508570Y-14334819D01*
X58508570Y-14334819D02*
X58413332Y-14287200D01*
X58413332Y-14287200D02*
X58365713Y-14239580D01*
X58365713Y-14239580D02*
X58318094Y-14144342D01*
X58318094Y-14144342D02*
X58270475Y-13953866D01*
X58270475Y-13953866D02*
X58270475Y-13715771D01*
X58270475Y-13715771D02*
X58318094Y-13525295D01*
X58318094Y-13525295D02*
X58365713Y-13430057D01*
X58365713Y-13430057D02*
X58413332Y-13382438D01*
X58413332Y-13382438D02*
X58508570Y-13334819D01*
X53508094Y-14654819D02*
X53508094Y-13654819D01*
X54079522Y-14654819D02*
X53650951Y-14083390D01*
X54079522Y-13654819D02*
X53508094Y-14226247D01*
D11*
X11306666Y-25518795D02*
X11488095Y-25579271D01*
X11488095Y-25579271D02*
X11790476Y-25579271D01*
X11790476Y-25579271D02*
X11911428Y-25518795D01*
X11911428Y-25518795D02*
X11971904Y-25458318D01*
X11971904Y-25458318D02*
X12032381Y-25337366D01*
X12032381Y-25337366D02*
X12032381Y-25216414D01*
X12032381Y-25216414D02*
X11971904Y-25095461D01*
X11971904Y-25095461D02*
X11911428Y-25034985D01*
X11911428Y-25034985D02*
X11790476Y-24974509D01*
X11790476Y-24974509D02*
X11548571Y-24914033D01*
X11548571Y-24914033D02*
X11427619Y-24853556D01*
X11427619Y-24853556D02*
X11367142Y-24793080D01*
X11367142Y-24793080D02*
X11306666Y-24672128D01*
X11306666Y-24672128D02*
X11306666Y-24551175D01*
X11306666Y-24551175D02*
X11367142Y-24430223D01*
X11367142Y-24430223D02*
X11427619Y-24369747D01*
X11427619Y-24369747D02*
X11548571Y-24309271D01*
X11548571Y-24309271D02*
X11850952Y-24309271D01*
X11850952Y-24309271D02*
X12032381Y-24369747D01*
X12455714Y-24309271D02*
X12758095Y-25579271D01*
X12758095Y-25579271D02*
X13000000Y-24672128D01*
X13000000Y-24672128D02*
X13241905Y-25579271D01*
X13241905Y-25579271D02*
X13544286Y-24309271D01*
X14572381Y-24309271D02*
X14330476Y-24309271D01*
X14330476Y-24309271D02*
X14209524Y-24369747D01*
X14209524Y-24369747D02*
X14149048Y-24430223D01*
X14149048Y-24430223D02*
X14028095Y-24611652D01*
X14028095Y-24611652D02*
X13967619Y-24853556D01*
X13967619Y-24853556D02*
X13967619Y-25337366D01*
X13967619Y-25337366D02*
X14028095Y-25458318D01*
X14028095Y-25458318D02*
X14088572Y-25518795D01*
X14088572Y-25518795D02*
X14209524Y-25579271D01*
X14209524Y-25579271D02*
X14451429Y-25579271D01*
X14451429Y-25579271D02*
X14572381Y-25518795D01*
X14572381Y-25518795D02*
X14632857Y-25458318D01*
X14632857Y-25458318D02*
X14693334Y-25337366D01*
X14693334Y-25337366D02*
X14693334Y-25034985D01*
X14693334Y-25034985D02*
X14632857Y-24914033D01*
X14632857Y-24914033D02*
X14572381Y-24853556D01*
X14572381Y-24853556D02*
X14451429Y-24793080D01*
X14451429Y-24793080D02*
X14209524Y-24793080D01*
X14209524Y-24793080D02*
X14088572Y-24853556D01*
X14088572Y-24853556D02*
X14028095Y-24914033D01*
X14028095Y-24914033D02*
X13967619Y-25034985D01*
X74518333Y-28579271D02*
X74094999Y-27974509D01*
X73792618Y-28579271D02*
X73792618Y-27309271D01*
X73792618Y-27309271D02*
X74276428Y-27309271D01*
X74276428Y-27309271D02*
X74397380Y-27369747D01*
X74397380Y-27369747D02*
X74457857Y-27430223D01*
X74457857Y-27430223D02*
X74518333Y-27551175D01*
X74518333Y-27551175D02*
X74518333Y-27732604D01*
X74518333Y-27732604D02*
X74457857Y-27853556D01*
X74457857Y-27853556D02*
X74397380Y-27914033D01*
X74397380Y-27914033D02*
X74276428Y-27974509D01*
X74276428Y-27974509D02*
X73792618Y-27974509D01*
X75727857Y-27369747D02*
X75606904Y-27309271D01*
X75606904Y-27309271D02*
X75425476Y-27309271D01*
X75425476Y-27309271D02*
X75244047Y-27369747D01*
X75244047Y-27369747D02*
X75123095Y-27490699D01*
X75123095Y-27490699D02*
X75062618Y-27611652D01*
X75062618Y-27611652D02*
X75002142Y-27853556D01*
X75002142Y-27853556D02*
X75002142Y-28034985D01*
X75002142Y-28034985D02*
X75062618Y-28276890D01*
X75062618Y-28276890D02*
X75123095Y-28397842D01*
X75123095Y-28397842D02*
X75244047Y-28518795D01*
X75244047Y-28518795D02*
X75425476Y-28579271D01*
X75425476Y-28579271D02*
X75546428Y-28579271D01*
X75546428Y-28579271D02*
X75727857Y-28518795D01*
X75727857Y-28518795D02*
X75788333Y-28458318D01*
X75788333Y-28458318D02*
X75788333Y-28034985D01*
X75788333Y-28034985D02*
X75546428Y-28034985D01*
X76755952Y-27914033D02*
X76937380Y-27974509D01*
X76937380Y-27974509D02*
X76997857Y-28034985D01*
X76997857Y-28034985D02*
X77058333Y-28155937D01*
X77058333Y-28155937D02*
X77058333Y-28337366D01*
X77058333Y-28337366D02*
X76997857Y-28458318D01*
X76997857Y-28458318D02*
X76937380Y-28518795D01*
X76937380Y-28518795D02*
X76816428Y-28579271D01*
X76816428Y-28579271D02*
X76332618Y-28579271D01*
X76332618Y-28579271D02*
X76332618Y-27309271D01*
X76332618Y-27309271D02*
X76755952Y-27309271D01*
X76755952Y-27309271D02*
X76876904Y-27369747D01*
X76876904Y-27369747D02*
X76937380Y-27430223D01*
X76937380Y-27430223D02*
X76997857Y-27551175D01*
X76997857Y-27551175D02*
X76997857Y-27672128D01*
X76997857Y-27672128D02*
X76937380Y-27793080D01*
X76937380Y-27793080D02*
X76876904Y-27853556D01*
X76876904Y-27853556D02*
X76755952Y-27914033D01*
X76755952Y-27914033D02*
X76332618Y-27914033D01*
X78267857Y-28579271D02*
X77542142Y-28579271D01*
X77904999Y-28579271D02*
X77904999Y-27309271D01*
X77904999Y-27309271D02*
X77784047Y-27490699D01*
X77784047Y-27490699D02*
X77663095Y-27611652D01*
X77663095Y-27611652D02*
X77542142Y-27672128D01*
X87669523Y-34079271D02*
X87064761Y-34079271D01*
X87064761Y-34079271D02*
X87064761Y-32809271D01*
X88092856Y-33414033D02*
X88516190Y-33414033D01*
X88697618Y-34079271D02*
X88092856Y-34079271D01*
X88092856Y-34079271D02*
X88092856Y-32809271D01*
X88092856Y-32809271D02*
X88697618Y-32809271D01*
X89060476Y-32809271D02*
X89483809Y-34079271D01*
X89483809Y-34079271D02*
X89907143Y-32809271D01*
X90995714Y-34079271D02*
X90269999Y-34079271D01*
X90632856Y-34079271D02*
X90632856Y-32809271D01*
X90632856Y-32809271D02*
X90511904Y-32990699D01*
X90511904Y-32990699D02*
X90390952Y-33111652D01*
X90390952Y-33111652D02*
X90269999Y-33172128D01*
X29306666Y-43518795D02*
X29488095Y-43579271D01*
X29488095Y-43579271D02*
X29790476Y-43579271D01*
X29790476Y-43579271D02*
X29911428Y-43518795D01*
X29911428Y-43518795D02*
X29971904Y-43458318D01*
X29971904Y-43458318D02*
X30032381Y-43337366D01*
X30032381Y-43337366D02*
X30032381Y-43216414D01*
X30032381Y-43216414D02*
X29971904Y-43095461D01*
X29971904Y-43095461D02*
X29911428Y-43034985D01*
X29911428Y-43034985D02*
X29790476Y-42974509D01*
X29790476Y-42974509D02*
X29548571Y-42914033D01*
X29548571Y-42914033D02*
X29427619Y-42853556D01*
X29427619Y-42853556D02*
X29367142Y-42793080D01*
X29367142Y-42793080D02*
X29306666Y-42672128D01*
X29306666Y-42672128D02*
X29306666Y-42551175D01*
X29306666Y-42551175D02*
X29367142Y-42430223D01*
X29367142Y-42430223D02*
X29427619Y-42369747D01*
X29427619Y-42369747D02*
X29548571Y-42309271D01*
X29548571Y-42309271D02*
X29850952Y-42309271D01*
X29850952Y-42309271D02*
X30032381Y-42369747D01*
X30455714Y-42309271D02*
X30758095Y-43579271D01*
X30758095Y-43579271D02*
X31000000Y-42672128D01*
X31000000Y-42672128D02*
X31241905Y-43579271D01*
X31241905Y-43579271D02*
X31544286Y-42309271D01*
X31967619Y-42430223D02*
X32028095Y-42369747D01*
X32028095Y-42369747D02*
X32149048Y-42309271D01*
X32149048Y-42309271D02*
X32451429Y-42309271D01*
X32451429Y-42309271D02*
X32572381Y-42369747D01*
X32572381Y-42369747D02*
X32632857Y-42430223D01*
X32632857Y-42430223D02*
X32693334Y-42551175D01*
X32693334Y-42551175D02*
X32693334Y-42672128D01*
X32693334Y-42672128D02*
X32632857Y-42853556D01*
X32632857Y-42853556D02*
X31907143Y-43579271D01*
X31907143Y-43579271D02*
X32693334Y-43579271D01*
D10*
X66685714Y-14334819D02*
X66685714Y-13334819D01*
X66685714Y-13334819D02*
X66923809Y-13334819D01*
X66923809Y-13334819D02*
X67066666Y-13382438D01*
X67066666Y-13382438D02*
X67161904Y-13477676D01*
X67161904Y-13477676D02*
X67209523Y-13572914D01*
X67209523Y-13572914D02*
X67257142Y-13763390D01*
X67257142Y-13763390D02*
X67257142Y-13906247D01*
X67257142Y-13906247D02*
X67209523Y-14096723D01*
X67209523Y-14096723D02*
X67161904Y-14191961D01*
X67161904Y-14191961D02*
X67066666Y-14287200D01*
X67066666Y-14287200D02*
X66923809Y-14334819D01*
X66923809Y-14334819D02*
X66685714Y-14334819D01*
X68209523Y-14334819D02*
X67638095Y-14334819D01*
X67923809Y-14334819D02*
X67923809Y-13334819D01*
X67923809Y-13334819D02*
X67828571Y-13477676D01*
X67828571Y-13477676D02*
X67733333Y-13572914D01*
X67733333Y-13572914D02*
X67638095Y-13620533D01*
X68590476Y-13430057D02*
X68638095Y-13382438D01*
X68638095Y-13382438D02*
X68733333Y-13334819D01*
X68733333Y-13334819D02*
X68971428Y-13334819D01*
X68971428Y-13334819D02*
X69066666Y-13382438D01*
X69066666Y-13382438D02*
X69114285Y-13430057D01*
X69114285Y-13430057D02*
X69161904Y-13525295D01*
X69161904Y-13525295D02*
X69161904Y-13620533D01*
X69161904Y-13620533D02*
X69114285Y-13763390D01*
X69114285Y-13763390D02*
X68542857Y-14334819D01*
X68542857Y-14334819D02*
X69161904Y-14334819D01*
X63828095Y-14654819D02*
X63828095Y-13654819D01*
X64399523Y-14654819D02*
X63970952Y-14083390D01*
X64399523Y-13654819D02*
X63828095Y-14226247D01*
D11*
X64701904Y-7518795D02*
X64883333Y-7579271D01*
X64883333Y-7579271D02*
X65185714Y-7579271D01*
X65185714Y-7579271D02*
X65306666Y-7518795D01*
X65306666Y-7518795D02*
X65367142Y-7458318D01*
X65367142Y-7458318D02*
X65427619Y-7337366D01*
X65427619Y-7337366D02*
X65427619Y-7216414D01*
X65427619Y-7216414D02*
X65367142Y-7095461D01*
X65367142Y-7095461D02*
X65306666Y-7034985D01*
X65306666Y-7034985D02*
X65185714Y-6974509D01*
X65185714Y-6974509D02*
X64943809Y-6914033D01*
X64943809Y-6914033D02*
X64822857Y-6853556D01*
X64822857Y-6853556D02*
X64762380Y-6793080D01*
X64762380Y-6793080D02*
X64701904Y-6672128D01*
X64701904Y-6672128D02*
X64701904Y-6551175D01*
X64701904Y-6551175D02*
X64762380Y-6430223D01*
X64762380Y-6430223D02*
X64822857Y-6369747D01*
X64822857Y-6369747D02*
X64943809Y-6309271D01*
X64943809Y-6309271D02*
X65246190Y-6309271D01*
X65246190Y-6309271D02*
X65427619Y-6369747D01*
X65850952Y-6309271D02*
X66153333Y-7579271D01*
X66153333Y-7579271D02*
X66395238Y-6672128D01*
X66395238Y-6672128D02*
X66637143Y-7579271D01*
X66637143Y-7579271D02*
X66939524Y-6309271D01*
X68088572Y-7579271D02*
X67362857Y-7579271D01*
X67725714Y-7579271D02*
X67725714Y-6309271D01*
X67725714Y-6309271D02*
X67604762Y-6490699D01*
X67604762Y-6490699D02*
X67483810Y-6611652D01*
X67483810Y-6611652D02*
X67362857Y-6672128D01*
X68511905Y-6309271D02*
X69298096Y-6309271D01*
X69298096Y-6309271D02*
X68874762Y-6793080D01*
X68874762Y-6793080D02*
X69056191Y-6793080D01*
X69056191Y-6793080D02*
X69177143Y-6853556D01*
X69177143Y-6853556D02*
X69237619Y-6914033D01*
X69237619Y-6914033D02*
X69298096Y-7034985D01*
X69298096Y-7034985D02*
X69298096Y-7337366D01*
X69298096Y-7337366D02*
X69237619Y-7458318D01*
X69237619Y-7458318D02*
X69177143Y-7518795D01*
X69177143Y-7518795D02*
X69056191Y-7579271D01*
X69056191Y-7579271D02*
X68693334Y-7579271D01*
X68693334Y-7579271D02*
X68572381Y-7518795D01*
X68572381Y-7518795D02*
X68511905Y-7458318D01*
D10*
X95376666Y-4104819D02*
X95376666Y-4819104D01*
X95376666Y-4819104D02*
X95329047Y-4961961D01*
X95329047Y-4961961D02*
X95233809Y-5057200D01*
X95233809Y-5057200D02*
X95090952Y-5104819D01*
X95090952Y-5104819D02*
X94995714Y-5104819D01*
X95852857Y-5104819D02*
X95852857Y-4104819D01*
X95852857Y-4104819D02*
X96233809Y-4104819D01*
X96233809Y-4104819D02*
X96329047Y-4152438D01*
X96329047Y-4152438D02*
X96376666Y-4200057D01*
X96376666Y-4200057D02*
X96424285Y-4295295D01*
X96424285Y-4295295D02*
X96424285Y-4438152D01*
X96424285Y-4438152D02*
X96376666Y-4533390D01*
X96376666Y-4533390D02*
X96329047Y-4581009D01*
X96329047Y-4581009D02*
X96233809Y-4628628D01*
X96233809Y-4628628D02*
X95852857Y-4628628D01*
X96805238Y-4200057D02*
X96852857Y-4152438D01*
X96852857Y-4152438D02*
X96948095Y-4104819D01*
X96948095Y-4104819D02*
X97186190Y-4104819D01*
X97186190Y-4104819D02*
X97281428Y-4152438D01*
X97281428Y-4152438D02*
X97329047Y-4200057D01*
X97329047Y-4200057D02*
X97376666Y-4295295D01*
X97376666Y-4295295D02*
X97376666Y-4390533D01*
X97376666Y-4390533D02*
X97329047Y-4533390D01*
X97329047Y-4533390D02*
X96757619Y-5104819D01*
X96757619Y-5104819D02*
X97376666Y-5104819D01*
D11*
X11306666Y-43518795D02*
X11488095Y-43579271D01*
X11488095Y-43579271D02*
X11790476Y-43579271D01*
X11790476Y-43579271D02*
X11911428Y-43518795D01*
X11911428Y-43518795D02*
X11971904Y-43458318D01*
X11971904Y-43458318D02*
X12032381Y-43337366D01*
X12032381Y-43337366D02*
X12032381Y-43216414D01*
X12032381Y-43216414D02*
X11971904Y-43095461D01*
X11971904Y-43095461D02*
X11911428Y-43034985D01*
X11911428Y-43034985D02*
X11790476Y-42974509D01*
X11790476Y-42974509D02*
X11548571Y-42914033D01*
X11548571Y-42914033D02*
X11427619Y-42853556D01*
X11427619Y-42853556D02*
X11367142Y-42793080D01*
X11367142Y-42793080D02*
X11306666Y-42672128D01*
X11306666Y-42672128D02*
X11306666Y-42551175D01*
X11306666Y-42551175D02*
X11367142Y-42430223D01*
X11367142Y-42430223D02*
X11427619Y-42369747D01*
X11427619Y-42369747D02*
X11548571Y-42309271D01*
X11548571Y-42309271D02*
X11850952Y-42309271D01*
X11850952Y-42309271D02*
X12032381Y-42369747D01*
X12455714Y-42309271D02*
X12758095Y-43579271D01*
X12758095Y-43579271D02*
X13000000Y-42672128D01*
X13000000Y-42672128D02*
X13241905Y-43579271D01*
X13241905Y-43579271D02*
X13544286Y-42309271D01*
X14693334Y-43579271D02*
X13967619Y-43579271D01*
X14330476Y-43579271D02*
X14330476Y-42309271D01*
X14330476Y-42309271D02*
X14209524Y-42490699D01*
X14209524Y-42490699D02*
X14088572Y-42611652D01*
X14088572Y-42611652D02*
X13967619Y-42672128D01*
D10*
X67161905Y-32334819D02*
X67161905Y-31334819D01*
X67161905Y-31334819D02*
X67400000Y-31334819D01*
X67400000Y-31334819D02*
X67542857Y-31382438D01*
X67542857Y-31382438D02*
X67638095Y-31477676D01*
X67638095Y-31477676D02*
X67685714Y-31572914D01*
X67685714Y-31572914D02*
X67733333Y-31763390D01*
X67733333Y-31763390D02*
X67733333Y-31906247D01*
X67733333Y-31906247D02*
X67685714Y-32096723D01*
X67685714Y-32096723D02*
X67638095Y-32191961D01*
X67638095Y-32191961D02*
X67542857Y-32287200D01*
X67542857Y-32287200D02*
X67400000Y-32334819D01*
X67400000Y-32334819D02*
X67161905Y-32334819D01*
X68590476Y-31334819D02*
X68400000Y-31334819D01*
X68400000Y-31334819D02*
X68304762Y-31382438D01*
X68304762Y-31382438D02*
X68257143Y-31430057D01*
X68257143Y-31430057D02*
X68161905Y-31572914D01*
X68161905Y-31572914D02*
X68114286Y-31763390D01*
X68114286Y-31763390D02*
X68114286Y-32144342D01*
X68114286Y-32144342D02*
X68161905Y-32239580D01*
X68161905Y-32239580D02*
X68209524Y-32287200D01*
X68209524Y-32287200D02*
X68304762Y-32334819D01*
X68304762Y-32334819D02*
X68495238Y-32334819D01*
X68495238Y-32334819D02*
X68590476Y-32287200D01*
X68590476Y-32287200D02*
X68638095Y-32239580D01*
X68638095Y-32239580D02*
X68685714Y-32144342D01*
X68685714Y-32144342D02*
X68685714Y-31906247D01*
X68685714Y-31906247D02*
X68638095Y-31811009D01*
X68638095Y-31811009D02*
X68590476Y-31763390D01*
X68590476Y-31763390D02*
X68495238Y-31715771D01*
X68495238Y-31715771D02*
X68304762Y-31715771D01*
X68304762Y-31715771D02*
X68209524Y-31763390D01*
X68209524Y-31763390D02*
X68161905Y-31811009D01*
X68161905Y-31811009D02*
X68114286Y-31906247D01*
X63828095Y-32654819D02*
X63828095Y-31654819D01*
X64399523Y-32654819D02*
X63970952Y-32083390D01*
X64399523Y-31654819D02*
X63828095Y-32226247D01*
D11*
X82701904Y-25518795D02*
X82883333Y-25579271D01*
X82883333Y-25579271D02*
X83185714Y-25579271D01*
X83185714Y-25579271D02*
X83306666Y-25518795D01*
X83306666Y-25518795D02*
X83367142Y-25458318D01*
X83367142Y-25458318D02*
X83427619Y-25337366D01*
X83427619Y-25337366D02*
X83427619Y-25216414D01*
X83427619Y-25216414D02*
X83367142Y-25095461D01*
X83367142Y-25095461D02*
X83306666Y-25034985D01*
X83306666Y-25034985D02*
X83185714Y-24974509D01*
X83185714Y-24974509D02*
X82943809Y-24914033D01*
X82943809Y-24914033D02*
X82822857Y-24853556D01*
X82822857Y-24853556D02*
X82762380Y-24793080D01*
X82762380Y-24793080D02*
X82701904Y-24672128D01*
X82701904Y-24672128D02*
X82701904Y-24551175D01*
X82701904Y-24551175D02*
X82762380Y-24430223D01*
X82762380Y-24430223D02*
X82822857Y-24369747D01*
X82822857Y-24369747D02*
X82943809Y-24309271D01*
X82943809Y-24309271D02*
X83246190Y-24309271D01*
X83246190Y-24309271D02*
X83427619Y-24369747D01*
X83850952Y-24309271D02*
X84153333Y-25579271D01*
X84153333Y-25579271D02*
X84395238Y-24672128D01*
X84395238Y-24672128D02*
X84637143Y-25579271D01*
X84637143Y-25579271D02*
X84939524Y-24309271D01*
X86088572Y-25579271D02*
X85362857Y-25579271D01*
X85725714Y-25579271D02*
X85725714Y-24309271D01*
X85725714Y-24309271D02*
X85604762Y-24490699D01*
X85604762Y-24490699D02*
X85483810Y-24611652D01*
X85483810Y-24611652D02*
X85362857Y-24672128D01*
X86874762Y-24309271D02*
X86995715Y-24309271D01*
X86995715Y-24309271D02*
X87116667Y-24369747D01*
X87116667Y-24369747D02*
X87177143Y-24430223D01*
X87177143Y-24430223D02*
X87237619Y-24551175D01*
X87237619Y-24551175D02*
X87298096Y-24793080D01*
X87298096Y-24793080D02*
X87298096Y-25095461D01*
X87298096Y-25095461D02*
X87237619Y-25337366D01*
X87237619Y-25337366D02*
X87177143Y-25458318D01*
X87177143Y-25458318D02*
X87116667Y-25518795D01*
X87116667Y-25518795D02*
X86995715Y-25579271D01*
X86995715Y-25579271D02*
X86874762Y-25579271D01*
X86874762Y-25579271D02*
X86753810Y-25518795D01*
X86753810Y-25518795D02*
X86693334Y-25458318D01*
X86693334Y-25458318D02*
X86632857Y-25337366D01*
X86632857Y-25337366D02*
X86572381Y-25095461D01*
X86572381Y-25095461D02*
X86572381Y-24793080D01*
X86572381Y-24793080D02*
X86632857Y-24551175D01*
X86632857Y-24551175D02*
X86693334Y-24430223D01*
X86693334Y-24430223D02*
X86753810Y-24369747D01*
X86753810Y-24369747D02*
X86874762Y-24309271D01*
D10*
X46521904Y-32334819D02*
X46521904Y-31334819D01*
X46521904Y-31334819D02*
X46759999Y-31334819D01*
X46759999Y-31334819D02*
X46902856Y-31382438D01*
X46902856Y-31382438D02*
X46998094Y-31477676D01*
X46998094Y-31477676D02*
X47045713Y-31572914D01*
X47045713Y-31572914D02*
X47093332Y-31763390D01*
X47093332Y-31763390D02*
X47093332Y-31906247D01*
X47093332Y-31906247D02*
X47045713Y-32096723D01*
X47045713Y-32096723D02*
X46998094Y-32191961D01*
X46998094Y-32191961D02*
X46902856Y-32287200D01*
X46902856Y-32287200D02*
X46759999Y-32334819D01*
X46759999Y-32334819D02*
X46521904Y-32334819D01*
X47950475Y-31668152D02*
X47950475Y-32334819D01*
X47712380Y-31287200D02*
X47474285Y-32001485D01*
X47474285Y-32001485D02*
X48093332Y-32001485D01*
X43188094Y-32654819D02*
X43188094Y-31654819D01*
X43759522Y-32654819D02*
X43330951Y-32083390D01*
X43759522Y-31654819D02*
X43188094Y-32226247D01*
D11*
X65306666Y-43518795D02*
X65488095Y-43579271D01*
X65488095Y-43579271D02*
X65790476Y-43579271D01*
X65790476Y-43579271D02*
X65911428Y-43518795D01*
X65911428Y-43518795D02*
X65971904Y-43458318D01*
X65971904Y-43458318D02*
X66032381Y-43337366D01*
X66032381Y-43337366D02*
X66032381Y-43216414D01*
X66032381Y-43216414D02*
X65971904Y-43095461D01*
X65971904Y-43095461D02*
X65911428Y-43034985D01*
X65911428Y-43034985D02*
X65790476Y-42974509D01*
X65790476Y-42974509D02*
X65548571Y-42914033D01*
X65548571Y-42914033D02*
X65427619Y-42853556D01*
X65427619Y-42853556D02*
X65367142Y-42793080D01*
X65367142Y-42793080D02*
X65306666Y-42672128D01*
X65306666Y-42672128D02*
X65306666Y-42551175D01*
X65306666Y-42551175D02*
X65367142Y-42430223D01*
X65367142Y-42430223D02*
X65427619Y-42369747D01*
X65427619Y-42369747D02*
X65548571Y-42309271D01*
X65548571Y-42309271D02*
X65850952Y-42309271D01*
X65850952Y-42309271D02*
X66032381Y-42369747D01*
X66455714Y-42309271D02*
X66758095Y-43579271D01*
X66758095Y-43579271D02*
X67000000Y-42672128D01*
X67000000Y-42672128D02*
X67241905Y-43579271D01*
X67241905Y-43579271D02*
X67544286Y-42309271D01*
X68572381Y-42732604D02*
X68572381Y-43579271D01*
X68270000Y-42248795D02*
X67967619Y-43155937D01*
X67967619Y-43155937D02*
X68753810Y-43155937D01*
D10*
X5261905Y-14334819D02*
X5261905Y-13334819D01*
X5261905Y-13334819D02*
X5500000Y-13334819D01*
X5500000Y-13334819D02*
X5642857Y-13382438D01*
X5642857Y-13382438D02*
X5738095Y-13477676D01*
X5738095Y-13477676D02*
X5785714Y-13572914D01*
X5785714Y-13572914D02*
X5833333Y-13763390D01*
X5833333Y-13763390D02*
X5833333Y-13906247D01*
X5833333Y-13906247D02*
X5785714Y-14096723D01*
X5785714Y-14096723D02*
X5738095Y-14191961D01*
X5738095Y-14191961D02*
X5642857Y-14287200D01*
X5642857Y-14287200D02*
X5500000Y-14334819D01*
X5500000Y-14334819D02*
X5261905Y-14334819D01*
X6166667Y-13334819D02*
X6833333Y-13334819D01*
X6833333Y-13334819D02*
X6404762Y-14334819D01*
X1928095Y-14654819D02*
X1928095Y-13654819D01*
X2499523Y-14654819D02*
X2070952Y-14083390D01*
X2499523Y-13654819D02*
X1928095Y-14226247D01*
D11*
X84169523Y-34779271D02*
X83564761Y-34779271D01*
X83564761Y-34779271D02*
X83564761Y-33509271D01*
X84592856Y-34114033D02*
X85016190Y-34114033D01*
X85197618Y-34779271D02*
X84592856Y-34779271D01*
X84592856Y-34779271D02*
X84592856Y-33509271D01*
X84592856Y-33509271D02*
X85197618Y-33509271D01*
X85560476Y-33509271D02*
X85983809Y-34779271D01*
X85983809Y-34779271D02*
X86407143Y-33509271D01*
X86769999Y-33630223D02*
X86830475Y-33569747D01*
X86830475Y-33569747D02*
X86951428Y-33509271D01*
X86951428Y-33509271D02*
X87253809Y-33509271D01*
X87253809Y-33509271D02*
X87374761Y-33569747D01*
X87374761Y-33569747D02*
X87435237Y-33630223D01*
X87435237Y-33630223D02*
X87495714Y-33751175D01*
X87495714Y-33751175D02*
X87495714Y-33872128D01*
X87495714Y-33872128D02*
X87435237Y-34053556D01*
X87435237Y-34053556D02*
X86709523Y-34779271D01*
X86709523Y-34779271D02*
X87495714Y-34779271D01*
X47306666Y-43518795D02*
X47488095Y-43579271D01*
X47488095Y-43579271D02*
X47790476Y-43579271D01*
X47790476Y-43579271D02*
X47911428Y-43518795D01*
X47911428Y-43518795D02*
X47971904Y-43458318D01*
X47971904Y-43458318D02*
X48032381Y-43337366D01*
X48032381Y-43337366D02*
X48032381Y-43216414D01*
X48032381Y-43216414D02*
X47971904Y-43095461D01*
X47971904Y-43095461D02*
X47911428Y-43034985D01*
X47911428Y-43034985D02*
X47790476Y-42974509D01*
X47790476Y-42974509D02*
X47548571Y-42914033D01*
X47548571Y-42914033D02*
X47427619Y-42853556D01*
X47427619Y-42853556D02*
X47367142Y-42793080D01*
X47367142Y-42793080D02*
X47306666Y-42672128D01*
X47306666Y-42672128D02*
X47306666Y-42551175D01*
X47306666Y-42551175D02*
X47367142Y-42430223D01*
X47367142Y-42430223D02*
X47427619Y-42369747D01*
X47427619Y-42369747D02*
X47548571Y-42309271D01*
X47548571Y-42309271D02*
X47850952Y-42309271D01*
X47850952Y-42309271D02*
X48032381Y-42369747D01*
X48455714Y-42309271D02*
X48758095Y-43579271D01*
X48758095Y-43579271D02*
X49000000Y-42672128D01*
X49000000Y-42672128D02*
X49241905Y-43579271D01*
X49241905Y-43579271D02*
X49544286Y-42309271D01*
X49907143Y-42309271D02*
X50693334Y-42309271D01*
X50693334Y-42309271D02*
X50270000Y-42793080D01*
X50270000Y-42793080D02*
X50451429Y-42793080D01*
X50451429Y-42793080D02*
X50572381Y-42853556D01*
X50572381Y-42853556D02*
X50632857Y-42914033D01*
X50632857Y-42914033D02*
X50693334Y-43034985D01*
X50693334Y-43034985D02*
X50693334Y-43337366D01*
X50693334Y-43337366D02*
X50632857Y-43458318D01*
X50632857Y-43458318D02*
X50572381Y-43518795D01*
X50572381Y-43518795D02*
X50451429Y-43579271D01*
X50451429Y-43579271D02*
X50088572Y-43579271D01*
X50088572Y-43579271D02*
X49967619Y-43518795D01*
X49967619Y-43518795D02*
X49907143Y-43458318D01*
X72699762Y-33579271D02*
X72276428Y-32974509D01*
X71974047Y-33579271D02*
X71974047Y-32309271D01*
X71974047Y-32309271D02*
X72457857Y-32309271D01*
X72457857Y-32309271D02*
X72578809Y-32369747D01*
X72578809Y-32369747D02*
X72639286Y-32430223D01*
X72639286Y-32430223D02*
X72699762Y-32551175D01*
X72699762Y-32551175D02*
X72699762Y-32732604D01*
X72699762Y-32732604D02*
X72639286Y-32853556D01*
X72639286Y-32853556D02*
X72578809Y-32914033D01*
X72578809Y-32914033D02*
X72457857Y-32974509D01*
X72457857Y-32974509D02*
X71974047Y-32974509D01*
X73183571Y-33518795D02*
X73365000Y-33579271D01*
X73365000Y-33579271D02*
X73667381Y-33579271D01*
X73667381Y-33579271D02*
X73788333Y-33518795D01*
X73788333Y-33518795D02*
X73848809Y-33458318D01*
X73848809Y-33458318D02*
X73909286Y-33337366D01*
X73909286Y-33337366D02*
X73909286Y-33216414D01*
X73909286Y-33216414D02*
X73848809Y-33095461D01*
X73848809Y-33095461D02*
X73788333Y-33034985D01*
X73788333Y-33034985D02*
X73667381Y-32974509D01*
X73667381Y-32974509D02*
X73425476Y-32914033D01*
X73425476Y-32914033D02*
X73304524Y-32853556D01*
X73304524Y-32853556D02*
X73244047Y-32793080D01*
X73244047Y-32793080D02*
X73183571Y-32672128D01*
X73183571Y-32672128D02*
X73183571Y-32551175D01*
X73183571Y-32551175D02*
X73244047Y-32430223D01*
X73244047Y-32430223D02*
X73304524Y-32369747D01*
X73304524Y-32369747D02*
X73425476Y-32309271D01*
X73425476Y-32309271D02*
X73727857Y-32309271D01*
X73727857Y-32309271D02*
X73909286Y-32369747D01*
X74272143Y-32309271D02*
X74997857Y-32309271D01*
X74635000Y-33579271D02*
X74635000Y-32309271D01*
X76086429Y-33579271D02*
X75360714Y-33579271D01*
X75723571Y-33579271D02*
X75723571Y-32309271D01*
X75723571Y-32309271D02*
X75602619Y-32490699D01*
X75602619Y-32490699D02*
X75481667Y-32611652D01*
X75481667Y-32611652D02*
X75360714Y-32672128D01*
D10*
X46045713Y-14334819D02*
X46045713Y-13334819D01*
X46045713Y-13334819D02*
X46283808Y-13334819D01*
X46283808Y-13334819D02*
X46426665Y-13382438D01*
X46426665Y-13382438D02*
X46521903Y-13477676D01*
X46521903Y-13477676D02*
X46569522Y-13572914D01*
X46569522Y-13572914D02*
X46617141Y-13763390D01*
X46617141Y-13763390D02*
X46617141Y-13906247D01*
X46617141Y-13906247D02*
X46569522Y-14096723D01*
X46569522Y-14096723D02*
X46521903Y-14191961D01*
X46521903Y-14191961D02*
X46426665Y-14287200D01*
X46426665Y-14287200D02*
X46283808Y-14334819D01*
X46283808Y-14334819D02*
X46045713Y-14334819D01*
X47569522Y-14334819D02*
X46998094Y-14334819D01*
X47283808Y-14334819D02*
X47283808Y-13334819D01*
X47283808Y-13334819D02*
X47188570Y-13477676D01*
X47188570Y-13477676D02*
X47093332Y-13572914D01*
X47093332Y-13572914D02*
X46998094Y-13620533D01*
X48521903Y-14334819D02*
X47950475Y-14334819D01*
X48236189Y-14334819D02*
X48236189Y-13334819D01*
X48236189Y-13334819D02*
X48140951Y-13477676D01*
X48140951Y-13477676D02*
X48045713Y-13572914D01*
X48045713Y-13572914D02*
X47950475Y-13620533D01*
X43188094Y-14654819D02*
X43188094Y-13654819D01*
X43759522Y-14654819D02*
X43330951Y-14083390D01*
X43759522Y-13654819D02*
X43188094Y-14226247D01*
D11*
X65306666Y-25518795D02*
X65488095Y-25579271D01*
X65488095Y-25579271D02*
X65790476Y-25579271D01*
X65790476Y-25579271D02*
X65911428Y-25518795D01*
X65911428Y-25518795D02*
X65971904Y-25458318D01*
X65971904Y-25458318D02*
X66032381Y-25337366D01*
X66032381Y-25337366D02*
X66032381Y-25216414D01*
X66032381Y-25216414D02*
X65971904Y-25095461D01*
X65971904Y-25095461D02*
X65911428Y-25034985D01*
X65911428Y-25034985D02*
X65790476Y-24974509D01*
X65790476Y-24974509D02*
X65548571Y-24914033D01*
X65548571Y-24914033D02*
X65427619Y-24853556D01*
X65427619Y-24853556D02*
X65367142Y-24793080D01*
X65367142Y-24793080D02*
X65306666Y-24672128D01*
X65306666Y-24672128D02*
X65306666Y-24551175D01*
X65306666Y-24551175D02*
X65367142Y-24430223D01*
X65367142Y-24430223D02*
X65427619Y-24369747D01*
X65427619Y-24369747D02*
X65548571Y-24309271D01*
X65548571Y-24309271D02*
X65850952Y-24309271D01*
X65850952Y-24309271D02*
X66032381Y-24369747D01*
X66455714Y-24309271D02*
X66758095Y-25579271D01*
X66758095Y-25579271D02*
X67000000Y-24672128D01*
X67000000Y-24672128D02*
X67241905Y-25579271D01*
X67241905Y-25579271D02*
X67544286Y-24309271D01*
X68088572Y-25579271D02*
X68330476Y-25579271D01*
X68330476Y-25579271D02*
X68451429Y-25518795D01*
X68451429Y-25518795D02*
X68511905Y-25458318D01*
X68511905Y-25458318D02*
X68632857Y-25276890D01*
X68632857Y-25276890D02*
X68693334Y-25034985D01*
X68693334Y-25034985D02*
X68693334Y-24551175D01*
X68693334Y-24551175D02*
X68632857Y-24430223D01*
X68632857Y-24430223D02*
X68572381Y-24369747D01*
X68572381Y-24369747D02*
X68451429Y-24309271D01*
X68451429Y-24309271D02*
X68209524Y-24309271D01*
X68209524Y-24309271D02*
X68088572Y-24369747D01*
X68088572Y-24369747D02*
X68028095Y-24430223D01*
X68028095Y-24430223D02*
X67967619Y-24551175D01*
X67967619Y-24551175D02*
X67967619Y-24853556D01*
X67967619Y-24853556D02*
X68028095Y-24974509D01*
X68028095Y-24974509D02*
X68088572Y-25034985D01*
X68088572Y-25034985D02*
X68209524Y-25095461D01*
X68209524Y-25095461D02*
X68451429Y-25095461D01*
X68451429Y-25095461D02*
X68572381Y-25034985D01*
X68572381Y-25034985D02*
X68632857Y-24974509D01*
X68632857Y-24974509D02*
X68693334Y-24853556D01*
D10*
X15761905Y-32334819D02*
X15761905Y-31334819D01*
X15761905Y-31334819D02*
X16000000Y-31334819D01*
X16000000Y-31334819D02*
X16142857Y-31382438D01*
X16142857Y-31382438D02*
X16238095Y-31477676D01*
X16238095Y-31477676D02*
X16285714Y-31572914D01*
X16285714Y-31572914D02*
X16333333Y-31763390D01*
X16333333Y-31763390D02*
X16333333Y-31906247D01*
X16333333Y-31906247D02*
X16285714Y-32096723D01*
X16285714Y-32096723D02*
X16238095Y-32191961D01*
X16238095Y-32191961D02*
X16142857Y-32287200D01*
X16142857Y-32287200D02*
X16000000Y-32334819D01*
X16000000Y-32334819D02*
X15761905Y-32334819D01*
X16714286Y-31430057D02*
X16761905Y-31382438D01*
X16761905Y-31382438D02*
X16857143Y-31334819D01*
X16857143Y-31334819D02*
X17095238Y-31334819D01*
X17095238Y-31334819D02*
X17190476Y-31382438D01*
X17190476Y-31382438D02*
X17238095Y-31430057D01*
X17238095Y-31430057D02*
X17285714Y-31525295D01*
X17285714Y-31525295D02*
X17285714Y-31620533D01*
X17285714Y-31620533D02*
X17238095Y-31763390D01*
X17238095Y-31763390D02*
X16666667Y-32334819D01*
X16666667Y-32334819D02*
X17285714Y-32334819D01*
X12428095Y-32654819D02*
X12428095Y-31654819D01*
X12999523Y-32654819D02*
X12570952Y-32083390D01*
X12999523Y-31654819D02*
X12428095Y-32226247D01*
D11*
X10701904Y-7518795D02*
X10883333Y-7579271D01*
X10883333Y-7579271D02*
X11185714Y-7579271D01*
X11185714Y-7579271D02*
X11306666Y-7518795D01*
X11306666Y-7518795D02*
X11367142Y-7458318D01*
X11367142Y-7458318D02*
X11427619Y-7337366D01*
X11427619Y-7337366D02*
X11427619Y-7216414D01*
X11427619Y-7216414D02*
X11367142Y-7095461D01*
X11367142Y-7095461D02*
X11306666Y-7034985D01*
X11306666Y-7034985D02*
X11185714Y-6974509D01*
X11185714Y-6974509D02*
X10943809Y-6914033D01*
X10943809Y-6914033D02*
X10822857Y-6853556D01*
X10822857Y-6853556D02*
X10762380Y-6793080D01*
X10762380Y-6793080D02*
X10701904Y-6672128D01*
X10701904Y-6672128D02*
X10701904Y-6551175D01*
X10701904Y-6551175D02*
X10762380Y-6430223D01*
X10762380Y-6430223D02*
X10822857Y-6369747D01*
X10822857Y-6369747D02*
X10943809Y-6309271D01*
X10943809Y-6309271D02*
X11246190Y-6309271D01*
X11246190Y-6309271D02*
X11427619Y-6369747D01*
X11850952Y-6309271D02*
X12153333Y-7579271D01*
X12153333Y-7579271D02*
X12395238Y-6672128D01*
X12395238Y-6672128D02*
X12637143Y-7579271D01*
X12637143Y-7579271D02*
X12939524Y-6309271D01*
X14088572Y-7579271D02*
X13362857Y-7579271D01*
X13725714Y-7579271D02*
X13725714Y-6309271D01*
X13725714Y-6309271D02*
X13604762Y-6490699D01*
X13604762Y-6490699D02*
X13483810Y-6611652D01*
X13483810Y-6611652D02*
X13362857Y-6672128D01*
X15298096Y-7579271D02*
X14572381Y-7579271D01*
X14935238Y-7579271D02*
X14935238Y-6309271D01*
X14935238Y-6309271D02*
X14814286Y-6490699D01*
X14814286Y-6490699D02*
X14693334Y-6611652D01*
X14693334Y-6611652D02*
X14572381Y-6672128D01*
X701904Y-27579271D02*
X701904Y-26309271D01*
X701904Y-26309271D02*
X1185714Y-26309271D01*
X1185714Y-26309271D02*
X1306666Y-26369747D01*
X1306666Y-26369747D02*
X1367143Y-26430223D01*
X1367143Y-26430223D02*
X1427619Y-26551175D01*
X1427619Y-26551175D02*
X1427619Y-26732604D01*
X1427619Y-26732604D02*
X1367143Y-26853556D01*
X1367143Y-26853556D02*
X1306666Y-26914033D01*
X1306666Y-26914033D02*
X1185714Y-26974509D01*
X1185714Y-26974509D02*
X701904Y-26974509D01*
X1850952Y-26309271D02*
X2153333Y-27579271D01*
X2153333Y-27579271D02*
X2395238Y-26672128D01*
X2395238Y-26672128D02*
X2637143Y-27579271D01*
X2637143Y-27579271D02*
X2939524Y-26309271D01*
X4149048Y-27579271D02*
X3725714Y-26974509D01*
X3423333Y-27579271D02*
X3423333Y-26309271D01*
X3423333Y-26309271D02*
X3907143Y-26309271D01*
X3907143Y-26309271D02*
X4028095Y-26369747D01*
X4028095Y-26369747D02*
X4088572Y-26430223D01*
X4088572Y-26430223D02*
X4149048Y-26551175D01*
X4149048Y-26551175D02*
X4149048Y-26732604D01*
X4149048Y-26732604D02*
X4088572Y-26853556D01*
X4088572Y-26853556D02*
X4028095Y-26914033D01*
X4028095Y-26914033D02*
X3907143Y-26974509D01*
X3907143Y-26974509D02*
X3423333Y-26974509D01*
X5358572Y-27579271D02*
X4632857Y-27579271D01*
X4995714Y-27579271D02*
X4995714Y-26309271D01*
X4995714Y-26309271D02*
X4874762Y-26490699D01*
X4874762Y-26490699D02*
X4753810Y-26611652D01*
X4753810Y-26611652D02*
X4632857Y-26672128D01*
D10*
X26261905Y-14334819D02*
X26261905Y-13334819D01*
X26261905Y-13334819D02*
X26500000Y-13334819D01*
X26500000Y-13334819D02*
X26642857Y-13382438D01*
X26642857Y-13382438D02*
X26738095Y-13477676D01*
X26738095Y-13477676D02*
X26785714Y-13572914D01*
X26785714Y-13572914D02*
X26833333Y-13763390D01*
X26833333Y-13763390D02*
X26833333Y-13906247D01*
X26833333Y-13906247D02*
X26785714Y-14096723D01*
X26785714Y-14096723D02*
X26738095Y-14191961D01*
X26738095Y-14191961D02*
X26642857Y-14287200D01*
X26642857Y-14287200D02*
X26500000Y-14334819D01*
X26500000Y-14334819D02*
X26261905Y-14334819D01*
X27309524Y-14334819D02*
X27500000Y-14334819D01*
X27500000Y-14334819D02*
X27595238Y-14287200D01*
X27595238Y-14287200D02*
X27642857Y-14239580D01*
X27642857Y-14239580D02*
X27738095Y-14096723D01*
X27738095Y-14096723D02*
X27785714Y-13906247D01*
X27785714Y-13906247D02*
X27785714Y-13525295D01*
X27785714Y-13525295D02*
X27738095Y-13430057D01*
X27738095Y-13430057D02*
X27690476Y-13382438D01*
X27690476Y-13382438D02*
X27595238Y-13334819D01*
X27595238Y-13334819D02*
X27404762Y-13334819D01*
X27404762Y-13334819D02*
X27309524Y-13382438D01*
X27309524Y-13382438D02*
X27261905Y-13430057D01*
X27261905Y-13430057D02*
X27214286Y-13525295D01*
X27214286Y-13525295D02*
X27214286Y-13763390D01*
X27214286Y-13763390D02*
X27261905Y-13858628D01*
X27261905Y-13858628D02*
X27309524Y-13906247D01*
X27309524Y-13906247D02*
X27404762Y-13953866D01*
X27404762Y-13953866D02*
X27595238Y-13953866D01*
X27595238Y-13953866D02*
X27690476Y-13906247D01*
X27690476Y-13906247D02*
X27738095Y-13858628D01*
X27738095Y-13858628D02*
X27785714Y-13763390D01*
X22928095Y-14654819D02*
X22928095Y-13654819D01*
X23499523Y-14654819D02*
X23070952Y-14083390D01*
X23499523Y-13654819D02*
X22928095Y-14226247D01*
D11*
X82701904Y-7518795D02*
X82883333Y-7579271D01*
X82883333Y-7579271D02*
X83185714Y-7579271D01*
X83185714Y-7579271D02*
X83306666Y-7518795D01*
X83306666Y-7518795D02*
X83367142Y-7458318D01*
X83367142Y-7458318D02*
X83427619Y-7337366D01*
X83427619Y-7337366D02*
X83427619Y-7216414D01*
X83427619Y-7216414D02*
X83367142Y-7095461D01*
X83367142Y-7095461D02*
X83306666Y-7034985D01*
X83306666Y-7034985D02*
X83185714Y-6974509D01*
X83185714Y-6974509D02*
X82943809Y-6914033D01*
X82943809Y-6914033D02*
X82822857Y-6853556D01*
X82822857Y-6853556D02*
X82762380Y-6793080D01*
X82762380Y-6793080D02*
X82701904Y-6672128D01*
X82701904Y-6672128D02*
X82701904Y-6551175D01*
X82701904Y-6551175D02*
X82762380Y-6430223D01*
X82762380Y-6430223D02*
X82822857Y-6369747D01*
X82822857Y-6369747D02*
X82943809Y-6309271D01*
X82943809Y-6309271D02*
X83246190Y-6309271D01*
X83246190Y-6309271D02*
X83427619Y-6369747D01*
X83850952Y-6309271D02*
X84153333Y-7579271D01*
X84153333Y-7579271D02*
X84395238Y-6672128D01*
X84395238Y-6672128D02*
X84637143Y-7579271D01*
X84637143Y-7579271D02*
X84939524Y-6309271D01*
X86088572Y-7579271D02*
X85362857Y-7579271D01*
X85725714Y-7579271D02*
X85725714Y-6309271D01*
X85725714Y-6309271D02*
X85604762Y-6490699D01*
X85604762Y-6490699D02*
X85483810Y-6611652D01*
X85483810Y-6611652D02*
X85362857Y-6672128D01*
X87177143Y-6732604D02*
X87177143Y-7579271D01*
X86874762Y-6248795D02*
X86572381Y-7155937D01*
X86572381Y-7155937D02*
X87358572Y-7155937D01*
%TO.C,D8*%
D12*
X13730000Y-16000000D02*
X14380000Y-16000000D01*
X14980000Y-14880000D02*
X14980000Y-17120000D01*
X15100000Y-14880000D02*
X15100000Y-17120000D01*
X15220000Y-14880000D02*
X15220000Y-17120000D01*
X19270000Y-16000000D02*
X18620000Y-16000000D01*
X14380000Y-14880000D02*
X18620000Y-14880000D01*
X18620000Y-17120000D01*
X14380000Y-17120000D01*
X14380000Y-14880000D01*
%TO.C,D1*%
X3230000Y-34000000D02*
X3880000Y-34000000D01*
X4480000Y-32880000D02*
X4480000Y-35120000D01*
X4600000Y-32880000D02*
X4600000Y-35120000D01*
X4720000Y-32880000D02*
X4720000Y-35120000D01*
X8770000Y-34000000D02*
X8120000Y-34000000D01*
X3880000Y-32880000D02*
X8120000Y-32880000D01*
X8120000Y-35120000D01*
X3880000Y-35120000D01*
X3880000Y-32880000D01*
%TO.C,D5*%
X54809999Y-34000000D02*
X55459999Y-34000000D01*
X56059999Y-32880000D02*
X56059999Y-35120000D01*
X56179999Y-32880000D02*
X56179999Y-35120000D01*
X56299999Y-32880000D02*
X56299999Y-35120000D01*
X60349999Y-34000000D02*
X59699999Y-34000000D01*
X55459999Y-32880000D02*
X59699999Y-32880000D01*
X59699999Y-35120000D01*
X55459999Y-35120000D01*
X55459999Y-32880000D01*
%TO.C,JP1*%
X79590000Y-5650000D02*
X80970000Y-5650000D01*
X79590000Y-7030000D02*
X79590000Y-5650000D01*
X79590000Y-8300000D02*
X79590000Y-36350000D01*
X79590000Y-8300000D02*
X82350000Y-8300000D01*
X79590000Y-36350000D02*
X82350000Y-36350000D01*
X82350000Y-8300000D02*
X82350000Y-36350000D01*
%TO.C,D3*%
X24230000Y-34000000D02*
X24880000Y-34000000D01*
X25480000Y-32880000D02*
X25480000Y-35120000D01*
X25600000Y-32880000D02*
X25600000Y-35120000D01*
X25720000Y-32880000D02*
X25720000Y-35120000D01*
X29770000Y-34000000D02*
X29120000Y-34000000D01*
X24880000Y-32880000D02*
X29120000Y-32880000D01*
X29120000Y-35120000D01*
X24880000Y-35120000D01*
X24880000Y-32880000D01*
%TO.C,D10*%
X54809999Y-16000000D02*
X55459999Y-16000000D01*
X56059999Y-14880000D02*
X56059999Y-17120000D01*
X56179999Y-14880000D02*
X56179999Y-17120000D01*
X56299999Y-14880000D02*
X56299999Y-17120000D01*
X60349999Y-16000000D02*
X59699999Y-16000000D01*
X55459999Y-14880000D02*
X59699999Y-14880000D01*
X59699999Y-17120000D01*
X55459999Y-17120000D01*
X55459999Y-14880000D01*
%TO.C,D12*%
X65130000Y-16000000D02*
X65780000Y-16000000D01*
X66380000Y-14880000D02*
X66380000Y-17120000D01*
X66500000Y-14880000D02*
X66500000Y-17120000D01*
X66620000Y-14880000D02*
X66620000Y-17120000D01*
X70670000Y-16000000D02*
X70020000Y-16000000D01*
X65780000Y-14880000D02*
X70020000Y-14880000D01*
X70020000Y-17120000D01*
X65780000Y-17120000D01*
X65780000Y-14880000D01*
%TO.C,JP2*%
X94830000Y-5650000D02*
X96210000Y-5650000D01*
X94830000Y-7030000D02*
X94830000Y-5650000D01*
X94830000Y-8300000D02*
X94830000Y-36350000D01*
X94830000Y-8300000D02*
X97590000Y-8300000D01*
X94830000Y-36350000D02*
X97590000Y-36350000D01*
X97590000Y-8300000D02*
X97590000Y-36350000D01*
%TO.C,D6*%
X65130000Y-34000000D02*
X65780000Y-34000000D01*
X66380000Y-32880000D02*
X66380000Y-35120000D01*
X66500000Y-32880000D02*
X66500000Y-35120000D01*
X66620000Y-32880000D02*
X66620000Y-35120000D01*
X70670000Y-34000000D02*
X70020000Y-34000000D01*
X65780000Y-32880000D02*
X70020000Y-32880000D01*
X70020000Y-35120000D01*
X65780000Y-35120000D01*
X65780000Y-32880000D01*
%TO.C,D4*%
X44489999Y-34000000D02*
X45139999Y-34000000D01*
X45739999Y-32880000D02*
X45739999Y-35120000D01*
X45859999Y-32880000D02*
X45859999Y-35120000D01*
X45979999Y-32880000D02*
X45979999Y-35120000D01*
X50029999Y-34000000D02*
X49379999Y-34000000D01*
X45139999Y-32880000D02*
X49379999Y-32880000D01*
X49379999Y-35120000D01*
X45139999Y-35120000D01*
X45139999Y-32880000D01*
%TO.C,D7*%
X3230000Y-16000000D02*
X3880000Y-16000000D01*
X4480000Y-14880000D02*
X4480000Y-17120000D01*
X4600000Y-14880000D02*
X4600000Y-17120000D01*
X4720000Y-14880000D02*
X4720000Y-17120000D01*
X8770000Y-16000000D02*
X8120000Y-16000000D01*
X3880000Y-14880000D02*
X8120000Y-14880000D01*
X8120000Y-17120000D01*
X3880000Y-17120000D01*
X3880000Y-14880000D01*
%TO.C,D11*%
X44489999Y-16000000D02*
X45139999Y-16000000D01*
X45739999Y-14880000D02*
X45739999Y-17120000D01*
X45859999Y-14880000D02*
X45859999Y-17120000D01*
X45979999Y-14880000D02*
X45979999Y-17120000D01*
X50029999Y-16000000D02*
X49379999Y-16000000D01*
X45139999Y-14880000D02*
X49379999Y-14880000D01*
X49379999Y-17120000D01*
X45139999Y-17120000D01*
X45139999Y-14880000D01*
%TO.C,D2*%
X13730000Y-34000000D02*
X14380000Y-34000000D01*
X14980000Y-32880000D02*
X14980000Y-35120000D01*
X15100000Y-32880000D02*
X15100000Y-35120000D01*
X15220000Y-32880000D02*
X15220000Y-35120000D01*
X19270000Y-34000000D02*
X18620000Y-34000000D01*
X14380000Y-32880000D02*
X18620000Y-32880000D01*
X18620000Y-35120000D01*
X14380000Y-35120000D01*
X14380000Y-32880000D01*
%TO.C,D9*%
X24230000Y-16000000D02*
X24880000Y-16000000D01*
X25480000Y-14880000D02*
X25480000Y-17120000D01*
X25600000Y-14880000D02*
X25600000Y-17120000D01*
X25720000Y-14880000D02*
X25720000Y-17120000D01*
X29770000Y-16000000D02*
X29120000Y-16000000D01*
X24880000Y-14880000D02*
X29120000Y-14880000D01*
X29120000Y-17120000D01*
X24880000Y-17120000D01*
X24880000Y-14880000D01*
%TD*%
M02*
